<mxfile host="app.diagrams.net" modified="2023-11-17T08:41:51.172Z" agent="Mozilla/5.0 (Windows NT 10.0; Win64; x64) AppleWebKit/537.36 (KHTML, like Gecko) Chrome/119.0.0.0 Safari/537.36" etag="eSiruY0VchKbDOWW3XHu" version="22.1.2" type="device">
  <diagram name="Página-1" id="r0GjaYptsSI3ogKqnVqz">
    <mxGraphModel dx="1914" dy="1031" grid="1" gridSize="10" guides="1" tooltips="1" connect="1" arrows="1" fold="1" page="1" pageScale="1" pageWidth="827" pageHeight="1169" math="0" shadow="0">
      <root>
        <mxCell id="0" />
        <mxCell id="1" parent="0" />
        <mxCell id="MRa9dr4gWbUR_vrnral5-1" value="Cliente" style="rounded=1;arcSize=10;whiteSpace=wrap;html=1;align=center;" parent="1" vertex="1">
          <mxGeometry x="820" y="70" width="100" height="40" as="geometry" />
        </mxCell>
        <mxCell id="MRa9dr4gWbUR_vrnral5-2" value="Pedido" style="rounded=1;arcSize=10;whiteSpace=wrap;html=1;align=center;" parent="1" vertex="1">
          <mxGeometry x="1180" y="70" width="100" height="40" as="geometry" />
        </mxCell>
        <mxCell id="MRa9dr4gWbUR_vrnral5-3" value="Realiza" style="shape=rhombus;perimeter=rhombusPerimeter;whiteSpace=wrap;html=1;align=center;" parent="1" vertex="1">
          <mxGeometry x="1000" y="60" width="120" height="60" as="geometry" />
        </mxCell>
        <mxCell id="MRa9dr4gWbUR_vrnral5-4" value="Contiene" style="shape=rhombus;perimeter=rhombusPerimeter;whiteSpace=wrap;html=1;align=center;" parent="1" vertex="1">
          <mxGeometry x="1170" y="130" width="120" height="60" as="geometry" />
        </mxCell>
        <mxCell id="MRa9dr4gWbUR_vrnral5-5" value="" style="endArrow=none;html=1;rounded=0;exitX=1;exitY=0.5;exitDx=0;exitDy=0;entryX=0;entryY=0.5;entryDx=0;entryDy=0;" parent="1" source="MRa9dr4gWbUR_vrnral5-1" target="MRa9dr4gWbUR_vrnral5-3" edge="1">
          <mxGeometry width="50" height="50" relative="1" as="geometry">
            <mxPoint x="930" y="120" as="sourcePoint" />
            <mxPoint x="980" y="70" as="targetPoint" />
          </mxGeometry>
        </mxCell>
        <mxCell id="MRa9dr4gWbUR_vrnral5-6" value="" style="endArrow=none;html=1;rounded=0;exitX=1;exitY=0.5;exitDx=0;exitDy=0;entryX=0;entryY=0.5;entryDx=0;entryDy=0;" parent="1" source="MRa9dr4gWbUR_vrnral5-3" target="MRa9dr4gWbUR_vrnral5-2" edge="1">
          <mxGeometry width="50" height="50" relative="1" as="geometry">
            <mxPoint x="1070" y="330" as="sourcePoint" />
            <mxPoint x="1120" y="280" as="targetPoint" />
          </mxGeometry>
        </mxCell>
        <mxCell id="MRa9dr4gWbUR_vrnral5-7" value="" style="endArrow=none;html=1;rounded=0;entryX=0.5;entryY=1;entryDx=0;entryDy=0;exitX=0.5;exitY=0;exitDx=0;exitDy=0;" parent="1" source="MRa9dr4gWbUR_vrnral5-4" target="MRa9dr4gWbUR_vrnral5-2" edge="1">
          <mxGeometry width="50" height="50" relative="1" as="geometry">
            <mxPoint x="1070" y="330" as="sourcePoint" />
            <mxPoint x="1120" y="280" as="targetPoint" />
          </mxGeometry>
        </mxCell>
        <mxCell id="MRa9dr4gWbUR_vrnral5-8" value="1" style="text;html=1;strokeColor=none;fillColor=none;align=center;verticalAlign=middle;whiteSpace=wrap;rounded=0;" parent="1" vertex="1">
          <mxGeometry x="1160" y="120" width="60" height="30" as="geometry" />
        </mxCell>
        <mxCell id="MRa9dr4gWbUR_vrnral5-9" value="N" style="text;html=1;strokeColor=none;fillColor=none;align=center;verticalAlign=middle;whiteSpace=wrap;rounded=0;" parent="1" vertex="1">
          <mxGeometry x="1080" y="50" width="60" height="30" as="geometry" />
        </mxCell>
        <mxCell id="MRa9dr4gWbUR_vrnral5-10" value="N" style="text;html=1;strokeColor=none;fillColor=none;align=center;verticalAlign=middle;whiteSpace=wrap;rounded=0;" parent="1" vertex="1">
          <mxGeometry x="1250" y="120" width="60" height="30" as="geometry" />
        </mxCell>
        <mxCell id="MRa9dr4gWbUR_vrnral5-11" value="1" style="text;html=1;strokeColor=none;fillColor=none;align=center;verticalAlign=middle;whiteSpace=wrap;rounded=0;" parent="1" vertex="1">
          <mxGeometry x="990" y="50" width="60" height="30" as="geometry" />
        </mxCell>
        <mxCell id="MRa9dr4gWbUR_vrnral5-12" value="Nº Cliente" style="ellipse;whiteSpace=wrap;html=1;align=center;fontStyle=4;" parent="1" vertex="1">
          <mxGeometry x="790" width="80" height="40" as="geometry" />
        </mxCell>
        <mxCell id="MRa9dr4gWbUR_vrnral5-13" value="" style="endArrow=none;html=1;rounded=0;entryX=0.5;entryY=1;entryDx=0;entryDy=0;" parent="1" source="MRa9dr4gWbUR_vrnral5-1" edge="1">
          <mxGeometry width="50" height="50" relative="1" as="geometry">
            <mxPoint x="1070" y="330" as="sourcePoint" />
            <mxPoint x="910" y="40" as="targetPoint" />
          </mxGeometry>
        </mxCell>
        <mxCell id="MRa9dr4gWbUR_vrnral5-14" value="" style="endArrow=none;html=1;rounded=0;entryX=0.5;entryY=1;entryDx=0;entryDy=0;exitX=0.5;exitY=0;exitDx=0;exitDy=0;" parent="1" source="MRa9dr4gWbUR_vrnral5-1" target="MRa9dr4gWbUR_vrnral5-12" edge="1">
          <mxGeometry width="50" height="50" relative="1" as="geometry">
            <mxPoint x="730" y="260" as="sourcePoint" />
            <mxPoint x="780" y="210" as="targetPoint" />
          </mxGeometry>
        </mxCell>
        <mxCell id="MRa9dr4gWbUR_vrnral5-15" value="" style="endArrow=none;html=1;rounded=0;exitX=0.08;exitY=0.05;exitDx=0;exitDy=0;exitPerimeter=0;" parent="1" source="MRa9dr4gWbUR_vrnral5-1" edge="1">
          <mxGeometry width="50" height="50" relative="1" as="geometry">
            <mxPoint x="1070" y="330" as="sourcePoint" />
            <mxPoint x="789.1279997077122" y="53.70729398009985" as="targetPoint" />
          </mxGeometry>
        </mxCell>
        <mxCell id="MRa9dr4gWbUR_vrnral5-16" value="" style="endArrow=none;html=1;rounded=0;entryX=1;entryY=0.5;entryDx=0;entryDy=0;exitX=0;exitY=0.5;exitDx=0;exitDy=0;" parent="1" source="MRa9dr4gWbUR_vrnral5-1" edge="1">
          <mxGeometry width="50" height="50" relative="1" as="geometry">
            <mxPoint x="1070" y="330" as="sourcePoint" />
            <mxPoint x="780" y="80" as="targetPoint" />
          </mxGeometry>
        </mxCell>
        <mxCell id="MRa9dr4gWbUR_vrnral5-17" value="" style="endArrow=none;html=1;rounded=0;entryX=1;entryY=0.5;entryDx=0;entryDy=0;exitX=0.14;exitY=0.975;exitDx=0;exitDy=0;exitPerimeter=0;" parent="1" source="MRa9dr4gWbUR_vrnral5-1" edge="1">
          <mxGeometry width="50" height="50" relative="1" as="geometry">
            <mxPoint x="1070" y="330" as="sourcePoint" />
            <mxPoint x="780" y="120" as="targetPoint" />
          </mxGeometry>
        </mxCell>
        <mxCell id="MRa9dr4gWbUR_vrnral5-18" value="Nombre" style="ellipse;whiteSpace=wrap;html=1;align=center;" parent="1" vertex="1">
          <mxGeometry x="720" y="20" width="80" height="40" as="geometry" />
        </mxCell>
        <mxCell id="MRa9dr4gWbUR_vrnral5-19" value="Apellidos" style="ellipse;whiteSpace=wrap;html=1;align=center;" parent="1" vertex="1">
          <mxGeometry x="710" y="60" width="80" height="40" as="geometry" />
        </mxCell>
        <mxCell id="MRa9dr4gWbUR_vrnral5-20" value="Teléfonos" style="ellipse;whiteSpace=wrap;html=1;align=center;" parent="1" vertex="1">
          <mxGeometry x="720" y="100" width="80" height="40" as="geometry" />
        </mxCell>
        <mxCell id="MRa9dr4gWbUR_vrnral5-21" value="Correo electrónico" style="ellipse;whiteSpace=wrap;html=1;align=center;" parent="1" vertex="1">
          <mxGeometry x="870" width="80" height="40" as="geometry" />
        </mxCell>
        <mxCell id="MRa9dr4gWbUR_vrnral5-22" value="Nº Pedido" style="ellipse;whiteSpace=wrap;html=1;align=center;fontStyle=4;" parent="1" vertex="1">
          <mxGeometry x="1180" width="80" height="40" as="geometry" />
        </mxCell>
        <mxCell id="MRa9dr4gWbUR_vrnral5-23" value="Fecha" style="ellipse;whiteSpace=wrap;html=1;align=center;" parent="1" vertex="1">
          <mxGeometry x="1270" y="10" width="80" height="40" as="geometry" />
        </mxCell>
        <mxCell id="MRa9dr4gWbUR_vrnral5-24" value="" style="endArrow=none;html=1;rounded=0;entryX=0.5;entryY=1;entryDx=0;entryDy=0;" parent="1" source="MRa9dr4gWbUR_vrnral5-2" target="MRa9dr4gWbUR_vrnral5-22" edge="1">
          <mxGeometry width="50" height="50" relative="1" as="geometry">
            <mxPoint x="1170" y="250" as="sourcePoint" />
            <mxPoint x="1220" y="200" as="targetPoint" />
          </mxGeometry>
        </mxCell>
        <mxCell id="MRa9dr4gWbUR_vrnral5-25" value="" style="endArrow=none;html=1;rounded=0;entryX=0.5;entryY=1;entryDx=0;entryDy=0;exitX=0.75;exitY=0;exitDx=0;exitDy=0;" parent="1" source="MRa9dr4gWbUR_vrnral5-2" target="MRa9dr4gWbUR_vrnral5-23" edge="1">
          <mxGeometry width="50" height="50" relative="1" as="geometry">
            <mxPoint x="1030" y="330" as="sourcePoint" />
            <mxPoint x="1080" y="280" as="targetPoint" />
          </mxGeometry>
        </mxCell>
        <mxCell id="MRa9dr4gWbUR_vrnral5-26" value="Línea de detalle" style="rounded=1;arcSize=10;whiteSpace=wrap;html=1;align=center;" parent="1" vertex="1">
          <mxGeometry x="1180" y="220" width="100" height="40" as="geometry" />
        </mxCell>
        <mxCell id="MRa9dr4gWbUR_vrnral5-27" value="" style="endArrow=none;html=1;rounded=0;entryX=0.5;entryY=1;entryDx=0;entryDy=0;exitX=0.5;exitY=0;exitDx=0;exitDy=0;" parent="1" source="MRa9dr4gWbUR_vrnral5-26" target="MRa9dr4gWbUR_vrnral5-4" edge="1">
          <mxGeometry width="50" height="50" relative="1" as="geometry">
            <mxPoint x="1030" y="330" as="sourcePoint" />
            <mxPoint x="1080" y="280" as="targetPoint" />
          </mxGeometry>
        </mxCell>
        <mxCell id="MRa9dr4gWbUR_vrnral5-28" value="Albarán" style="rounded=1;arcSize=10;whiteSpace=wrap;html=1;align=center;" parent="1" vertex="1">
          <mxGeometry x="1010" y="320" width="100" height="40" as="geometry" />
        </mxCell>
        <mxCell id="MRa9dr4gWbUR_vrnral5-29" value="Factura" style="rounded=1;arcSize=10;whiteSpace=wrap;html=1;align=center;" parent="1" vertex="1">
          <mxGeometry x="1350" y="320" width="100" height="40" as="geometry" />
        </mxCell>
        <mxCell id="MRa9dr4gWbUR_vrnral5-30" value="Constituye" style="shape=rhombus;perimeter=rhombusPerimeter;whiteSpace=wrap;html=1;align=center;" parent="1" vertex="1">
          <mxGeometry x="1170" y="290" width="120" height="60" as="geometry" />
        </mxCell>
        <mxCell id="MRa9dr4gWbUR_vrnral5-31" value="" style="endArrow=none;html=1;rounded=0;entryX=0.5;entryY=1;entryDx=0;entryDy=0;exitX=0.5;exitY=0;exitDx=0;exitDy=0;" parent="1" source="MRa9dr4gWbUR_vrnral5-30" target="MRa9dr4gWbUR_vrnral5-26" edge="1">
          <mxGeometry width="50" height="50" relative="1" as="geometry">
            <mxPoint x="1030" y="330" as="sourcePoint" />
            <mxPoint x="1080" y="280" as="targetPoint" />
          </mxGeometry>
        </mxCell>
        <mxCell id="MRa9dr4gWbUR_vrnral5-32" value="" style="endArrow=none;html=1;rounded=0;entryX=0;entryY=0.5;entryDx=0;entryDy=0;exitX=0.5;exitY=0;exitDx=0;exitDy=0;" parent="1" source="MRa9dr4gWbUR_vrnral5-28" target="MRa9dr4gWbUR_vrnral5-30" edge="1">
          <mxGeometry width="50" height="50" relative="1" as="geometry">
            <mxPoint x="1030" y="330" as="sourcePoint" />
            <mxPoint x="1080" y="280" as="targetPoint" />
          </mxGeometry>
        </mxCell>
        <mxCell id="MRa9dr4gWbUR_vrnral5-33" value="" style="endArrow=none;html=1;rounded=0;entryX=1;entryY=0.5;entryDx=0;entryDy=0;exitX=0.5;exitY=0;exitDx=0;exitDy=0;" parent="1" source="MRa9dr4gWbUR_vrnral5-29" target="MRa9dr4gWbUR_vrnral5-30" edge="1">
          <mxGeometry width="50" height="50" relative="1" as="geometry">
            <mxPoint x="1030" y="330" as="sourcePoint" />
            <mxPoint x="1080" y="280" as="targetPoint" />
          </mxGeometry>
        </mxCell>
        <mxCell id="MRa9dr4gWbUR_vrnral5-34" value="Fecha" style="ellipse;whiteSpace=wrap;html=1;align=center;" parent="1" vertex="1">
          <mxGeometry x="1270" y="10" width="80" height="40" as="geometry" />
        </mxCell>
        <mxCell id="MRa9dr4gWbUR_vrnral5-35" value="Cantidad" style="ellipse;whiteSpace=wrap;html=1;align=center;" parent="1" vertex="1">
          <mxGeometry x="1410" y="250" width="80" height="40" as="geometry" />
        </mxCell>
        <mxCell id="MRa9dr4gWbUR_vrnral5-36" value="Ref.Artículo" style="ellipse;whiteSpace=wrap;html=1;align=center;fontStyle=4;" parent="1" vertex="1">
          <mxGeometry x="1410" y="180" width="80" height="40" as="geometry" />
        </mxCell>
        <mxCell id="MRa9dr4gWbUR_vrnral5-37" value="Fecha de entrega" style="ellipse;whiteSpace=wrap;html=1;align=center;" parent="1" vertex="1">
          <mxGeometry x="920" y="380" width="80" height="40" as="geometry" />
        </mxCell>
        <mxCell id="MRa9dr4gWbUR_vrnral5-38" value="Dirección de entrega" style="ellipse;whiteSpace=wrap;html=1;align=center;" parent="1" vertex="1">
          <mxGeometry x="1090" y="380" width="80" height="40" as="geometry" />
        </mxCell>
        <mxCell id="MRa9dr4gWbUR_vrnral5-39" value="Nº Albarán" style="ellipse;whiteSpace=wrap;html=1;align=center;fontStyle=4;" parent="1" vertex="1">
          <mxGeometry x="890" y="320" width="80" height="40" as="geometry" />
        </mxCell>
        <mxCell id="MRa9dr4gWbUR_vrnral5-40" value="Nº Factura" style="ellipse;whiteSpace=wrap;html=1;align=center;fontStyle=4;" parent="1" vertex="1">
          <mxGeometry x="1270" y="390" width="80" height="40" as="geometry" />
        </mxCell>
        <mxCell id="MRa9dr4gWbUR_vrnral5-41" value="Fecha de cobro" style="ellipse;whiteSpace=wrap;html=1;align=center;" parent="1" vertex="1">
          <mxGeometry x="1440" y="390" width="80" height="40" as="geometry" />
        </mxCell>
        <mxCell id="MRa9dr4gWbUR_vrnral5-42" value="Modo de pago" style="ellipse;whiteSpace=wrap;html=1;align=center;" parent="1" vertex="1">
          <mxGeometry x="1360" y="440" width="80" height="40" as="geometry" />
        </mxCell>
        <mxCell id="MRa9dr4gWbUR_vrnral5-43" value="" style="endArrow=none;html=1;rounded=0;entryX=0;entryY=0.5;entryDx=0;entryDy=0;exitX=1;exitY=0.5;exitDx=0;exitDy=0;" parent="1" source="MRa9dr4gWbUR_vrnral5-39" target="MRa9dr4gWbUR_vrnral5-28" edge="1">
          <mxGeometry width="50" height="50" relative="1" as="geometry">
            <mxPoint x="1350" y="270" as="sourcePoint" />
            <mxPoint x="1290" y="260" as="targetPoint" />
          </mxGeometry>
        </mxCell>
        <mxCell id="MRa9dr4gWbUR_vrnral5-44" value="" style="endArrow=none;html=1;rounded=0;exitX=0.25;exitY=1;exitDx=0;exitDy=0;entryX=1;entryY=0;entryDx=0;entryDy=0;" parent="1" source="MRa9dr4gWbUR_vrnral5-28" target="MRa9dr4gWbUR_vrnral5-37" edge="1">
          <mxGeometry width="50" height="50" relative="1" as="geometry">
            <mxPoint x="1180" y="250" as="sourcePoint" />
            <mxPoint x="1230" y="200" as="targetPoint" />
          </mxGeometry>
        </mxCell>
        <mxCell id="MRa9dr4gWbUR_vrnral5-45" value="" style="endArrow=none;html=1;rounded=0;exitX=0.75;exitY=1;exitDx=0;exitDy=0;entryX=0.5;entryY=0;entryDx=0;entryDy=0;" parent="1" source="MRa9dr4gWbUR_vrnral5-28" target="MRa9dr4gWbUR_vrnral5-38" edge="1">
          <mxGeometry width="50" height="50" relative="1" as="geometry">
            <mxPoint x="1180" y="250" as="sourcePoint" />
            <mxPoint x="1230" y="200" as="targetPoint" />
          </mxGeometry>
        </mxCell>
        <mxCell id="MRa9dr4gWbUR_vrnral5-46" value="" style="endArrow=none;html=1;rounded=0;exitX=0;exitY=0.75;exitDx=0;exitDy=0;" parent="1" source="MRa9dr4gWbUR_vrnral5-29" target="MRa9dr4gWbUR_vrnral5-40" edge="1">
          <mxGeometry width="50" height="50" relative="1" as="geometry">
            <mxPoint x="1180" y="250" as="sourcePoint" />
            <mxPoint x="1230" y="200" as="targetPoint" />
          </mxGeometry>
        </mxCell>
        <mxCell id="MRa9dr4gWbUR_vrnral5-47" value="" style="endArrow=none;html=1;rounded=0;exitX=0.5;exitY=1;exitDx=0;exitDy=0;entryX=0.5;entryY=0;entryDx=0;entryDy=0;" parent="1" source="MRa9dr4gWbUR_vrnral5-29" target="MRa9dr4gWbUR_vrnral5-42" edge="1">
          <mxGeometry width="50" height="50" relative="1" as="geometry">
            <mxPoint x="1180" y="250" as="sourcePoint" />
            <mxPoint x="1230" y="200" as="targetPoint" />
          </mxGeometry>
        </mxCell>
        <mxCell id="MRa9dr4gWbUR_vrnral5-48" value="" style="endArrow=none;html=1;rounded=0;entryX=1;entryY=0.5;entryDx=0;entryDy=0;" parent="1" source="MRa9dr4gWbUR_vrnral5-41" target="MRa9dr4gWbUR_vrnral5-29" edge="1">
          <mxGeometry width="50" height="50" relative="1" as="geometry">
            <mxPoint x="1180" y="250" as="sourcePoint" />
            <mxPoint x="1230" y="200" as="targetPoint" />
          </mxGeometry>
        </mxCell>
        <mxCell id="MRa9dr4gWbUR_vrnral5-49" value="Artículo" style="ellipse;whiteSpace=wrap;html=1;align=center;" parent="1" vertex="1">
          <mxGeometry x="1300" y="220" width="80" height="40" as="geometry" />
        </mxCell>
        <mxCell id="MRa9dr4gWbUR_vrnral5-50" value="" style="endArrow=none;html=1;rounded=0;entryX=1;entryY=0.5;entryDx=0;entryDy=0;" parent="1" source="MRa9dr4gWbUR_vrnral5-49" target="MRa9dr4gWbUR_vrnral5-26" edge="1">
          <mxGeometry width="50" height="50" relative="1" as="geometry">
            <mxPoint x="1070" y="340" as="sourcePoint" />
            <mxPoint x="1120" y="290" as="targetPoint" />
          </mxGeometry>
        </mxCell>
        <mxCell id="MRa9dr4gWbUR_vrnral5-51" value="" style="endArrow=none;html=1;rounded=0;exitX=1;exitY=0.5;exitDx=0;exitDy=0;" parent="1" source="MRa9dr4gWbUR_vrnral5-49" target="MRa9dr4gWbUR_vrnral5-36" edge="1">
          <mxGeometry width="50" height="50" relative="1" as="geometry">
            <mxPoint x="1370" y="240" as="sourcePoint" />
            <mxPoint x="1120" y="290" as="targetPoint" />
          </mxGeometry>
        </mxCell>
        <mxCell id="MRa9dr4gWbUR_vrnral5-52" value="" style="endArrow=none;html=1;rounded=0;entryX=1;entryY=1;entryDx=0;entryDy=0;exitX=0;exitY=0.5;exitDx=0;exitDy=0;" parent="1" source="MRa9dr4gWbUR_vrnral5-35" target="MRa9dr4gWbUR_vrnral5-49" edge="1">
          <mxGeometry width="50" height="50" relative="1" as="geometry">
            <mxPoint x="1070" y="340" as="sourcePoint" />
            <mxPoint x="1120" y="290" as="targetPoint" />
          </mxGeometry>
        </mxCell>
        <mxCell id="MRa9dr4gWbUR_vrnral5-53" value="N" style="text;html=1;strokeColor=none;fillColor=none;align=center;verticalAlign=middle;whiteSpace=wrap;rounded=0;" parent="1" vertex="1">
          <mxGeometry x="1180" y="270" width="60" height="30" as="geometry" />
        </mxCell>
        <mxCell id="MRa9dr4gWbUR_vrnral5-54" value="M" style="text;html=1;strokeColor=none;fillColor=none;align=center;verticalAlign=middle;whiteSpace=wrap;rounded=0;" parent="1" vertex="1">
          <mxGeometry x="1180" y="340" width="60" height="30" as="geometry" />
        </mxCell>
        <mxCell id="MRa9dr4gWbUR_vrnral5-55" value="N" style="text;html=1;strokeColor=none;fillColor=none;align=center;verticalAlign=middle;whiteSpace=wrap;rounded=0;" parent="1" vertex="1">
          <mxGeometry x="1230" y="270" width="60" height="30" as="geometry" />
        </mxCell>
        <mxCell id="MRa9dr4gWbUR_vrnral5-56" value="1" style="text;html=1;strokeColor=none;fillColor=none;align=center;verticalAlign=middle;whiteSpace=wrap;rounded=0;" parent="1" vertex="1">
          <mxGeometry x="1230" y="340" width="60" height="30" as="geometry" />
        </mxCell>
        <mxCell id="MRa9dr4gWbUR_vrnral5-57" value="" style="rounded=0;whiteSpace=wrap;html=1;fillColor=#ffe6cc;strokeColor=#d79b00;" parent="1" vertex="1">
          <mxGeometry x="100" y="20" width="530" height="440" as="geometry" />
        </mxCell>
        <mxCell id="MRa9dr4gWbUR_vrnral5-58" value="PEDIDO(&lt;font color=&quot;#ff0000&quot;&gt;&lt;u&gt;&lt;i&gt;nºPedido&lt;/i&gt;&lt;/u&gt;&lt;/font&gt;)" style="text;html=1;strokeColor=none;fillColor=none;align=center;verticalAlign=middle;whiteSpace=wrap;rounded=0;" parent="1" vertex="1">
          <mxGeometry x="151.25" y="160" width="435" height="30" as="geometry" />
        </mxCell>
        <mxCell id="MRa9dr4gWbUR_vrnral5-59" value="CLIENTE(&lt;font style=&quot;font-style: italic; text-decoration-line: underline;&quot; color=&quot;#ff1919&quot;&gt;nºCliente&lt;/font&gt;, nombre, apellidos, telefonos, correoElectronico)" style="text;html=1;strokeColor=none;fillColor=none;align=center;verticalAlign=middle;whiteSpace=wrap;rounded=0;" parent="1" vertex="1">
          <mxGeometry x="175" y="40" width="380" height="30" as="geometry" />
        </mxCell>
        <mxCell id="MRa9dr4gWbUR_vrnral5-60" value="LINEA DE DETALLE(&lt;font style=&quot;&quot;&gt;artículo,&lt;/font&gt; &lt;font color=&quot;#ff0000&quot;&gt;&lt;u&gt;&lt;i&gt;refArticulo&lt;/i&gt;&lt;/u&gt;&lt;/font&gt;, cantidad, &lt;font color=&quot;#ff0000&quot;&gt;nºPedido, nºFactura&lt;/font&gt;)" style="text;html=1;strokeColor=none;fillColor=none;align=center;verticalAlign=middle;whiteSpace=wrap;rounded=0;" parent="1" vertex="1">
          <mxGeometry x="190" y="210" width="391.25" height="30" as="geometry" />
        </mxCell>
        <mxCell id="MRa9dr4gWbUR_vrnral5-61" value="FACTURA(&lt;u style=&quot;font-style: italic; color: rgb(255, 25, 25);&quot;&gt;nºFactura,&lt;/u&gt; modoPago, fechaCobro&amp;nbsp;)" style="text;html=1;strokeColor=none;fillColor=none;align=center;verticalAlign=middle;whiteSpace=wrap;rounded=0;" parent="1" vertex="1">
          <mxGeometry x="107.5" y="330" width="522.5" height="30" as="geometry" />
        </mxCell>
        <mxCell id="MRa9dr4gWbUR_vrnral5-62" value="CONSTITUYE(&lt;font color=&quot;#ff1919&quot;&gt;&lt;i&gt;&lt;u&gt;nºAlbarán, refArticulo&lt;/u&gt;&lt;/i&gt;&lt;/font&gt;)" style="text;html=1;strokeColor=none;fillColor=none;align=center;verticalAlign=middle;whiteSpace=wrap;rounded=0;" parent="1" vertex="1">
          <mxGeometry x="151.25" y="270" width="435" height="30" as="geometry" />
        </mxCell>
        <mxCell id="MRa9dr4gWbUR_vrnral5-69" value="REALIZA(&lt;font style=&quot;font-style: italic; text-decoration-line: underline;&quot; color=&quot;#ff0000&quot;&gt;nºCliente, nºPedido,&lt;/font&gt; fecha)" style="text;html=1;strokeColor=none;fillColor=none;align=center;verticalAlign=middle;whiteSpace=wrap;rounded=0;" parent="1" vertex="1">
          <mxGeometry x="151.25" y="100" width="435" height="30" as="geometry" />
        </mxCell>
        <mxCell id="MRa9dr4gWbUR_vrnral5-71" value="" style="endArrow=classic;html=1;rounded=0;exitX=0.45;exitY=-0.027;exitDx=0;exitDy=0;exitPerimeter=0;" parent="1" source="MRa9dr4gWbUR_vrnral5-69" edge="1">
          <mxGeometry width="50" height="50" relative="1" as="geometry">
            <mxPoint x="470" y="210" as="sourcePoint" />
            <mxPoint x="200" y="70" as="targetPoint" />
            <Array as="points">
              <mxPoint x="347" y="80" />
              <mxPoint x="200" y="80" />
            </Array>
          </mxGeometry>
        </mxCell>
        <mxCell id="MRa9dr4gWbUR_vrnral5-73" value="" style="endArrow=classic;html=1;rounded=0;exitX=0.586;exitY=1.093;exitDx=0;exitDy=0;exitPerimeter=0;entryX=0.435;entryY=0.08;entryDx=0;entryDy=0;entryPerimeter=0;" parent="1" source="MRa9dr4gWbUR_vrnral5-69" target="MRa9dr4gWbUR_vrnral5-58" edge="1">
          <mxGeometry width="50" height="50" relative="1" as="geometry">
            <mxPoint x="470" y="210" as="sourcePoint" />
            <mxPoint x="520" y="160" as="targetPoint" />
            <Array as="points">
              <mxPoint x="406" y="150" />
              <mxPoint x="340" y="150" />
            </Array>
          </mxGeometry>
        </mxCell>
        <mxCell id="MRa9dr4gWbUR_vrnral5-74" value="" style="endArrow=classic;html=1;rounded=0;exitX=0.775;exitY=0.067;exitDx=0;exitDy=0;exitPerimeter=0;" parent="1" source="MRa9dr4gWbUR_vrnral5-60" edge="1">
          <mxGeometry width="50" height="50" relative="1" as="geometry">
            <mxPoint x="470" y="210" as="sourcePoint" />
            <mxPoint x="340" y="180" as="targetPoint" />
            <Array as="points">
              <mxPoint x="493" y="190" />
              <mxPoint x="340" y="190" />
            </Array>
          </mxGeometry>
        </mxCell>
        <mxCell id="MRa9dr4gWbUR_vrnral5-75" value="" style="endArrow=classic;html=1;rounded=0;exitX=0.926;exitY=1.133;exitDx=0;exitDy=0;exitPerimeter=0;" parent="1" source="MRa9dr4gWbUR_vrnral5-60" edge="1">
          <mxGeometry width="50" height="50" relative="1" as="geometry">
            <mxPoint x="470" y="210" as="sourcePoint" />
            <mxPoint x="270" y="330" as="targetPoint" />
            <Array as="points">
              <mxPoint x="552" y="320" />
              <mxPoint x="270" y="320" />
            </Array>
          </mxGeometry>
        </mxCell>
        <mxCell id="MRa9dr4gWbUR_vrnral5-76" value="ALBARÁN(&lt;u style=&quot;font-style: italic; color: rgb(255, 25, 25);&quot;&gt;nºAlbarán,&lt;/u&gt; fechaEntrega, direccionEntrega&amp;nbsp;)" style="text;html=1;strokeColor=none;fillColor=none;align=center;verticalAlign=middle;whiteSpace=wrap;rounded=0;" parent="1" vertex="1">
          <mxGeometry x="107.5" y="400" width="522.5" height="30" as="geometry" />
        </mxCell>
        <mxCell id="MRa9dr4gWbUR_vrnral5-77" value="" style="endArrow=classic;html=1;rounded=0;exitX=0.5;exitY=1;exitDx=0;exitDy=0;entryX=0.215;entryY=0.333;entryDx=0;entryDy=0;entryPerimeter=0;" parent="1" source="MRa9dr4gWbUR_vrnral5-62" target="MRa9dr4gWbUR_vrnral5-76" edge="1">
          <mxGeometry width="50" height="50" relative="1" as="geometry">
            <mxPoint x="420" y="210" as="sourcePoint" />
            <mxPoint x="470" y="160" as="targetPoint" />
            <Array as="points">
              <mxPoint x="369" y="310" />
              <mxPoint x="200" y="310" />
              <mxPoint x="200" y="410" />
            </Array>
          </mxGeometry>
        </mxCell>
        <mxCell id="MRa9dr4gWbUR_vrnral5-78" value="" style="endArrow=classic;html=1;rounded=0;exitX=0.654;exitY=-0.013;exitDx=0;exitDy=0;exitPerimeter=0;entryX=0.151;entryY=0.947;entryDx=0;entryDy=0;entryPerimeter=0;" parent="1" source="MRa9dr4gWbUR_vrnral5-62" target="MRa9dr4gWbUR_vrnral5-60" edge="1">
          <mxGeometry width="50" height="50" relative="1" as="geometry">
            <mxPoint x="420" y="210" as="sourcePoint" />
            <mxPoint x="470" y="160" as="targetPoint" />
            <Array as="points">
              <mxPoint x="436" y="250" />
              <mxPoint x="250" y="250" />
            </Array>
          </mxGeometry>
        </mxCell>
        <mxCell id="MRa9dr4gWbUR_vrnral5-79" value="CD" style="rounded=1;arcSize=10;whiteSpace=wrap;html=1;align=center;" parent="1" vertex="1">
          <mxGeometry x="1371" y="630" width="100" height="40" as="geometry" />
        </mxCell>
        <mxCell id="MRa9dr4gWbUR_vrnral5-80" value="Cliente" style="rounded=1;arcSize=10;whiteSpace=wrap;html=1;align=center;" parent="1" vertex="1">
          <mxGeometry x="971" y="630" width="100" height="40" as="geometry" />
        </mxCell>
        <mxCell id="MRa9dr4gWbUR_vrnral5-81" value="Alquila" style="shape=rhombus;perimeter=rhombusPerimeter;whiteSpace=wrap;html=1;align=center;" parent="1" vertex="1">
          <mxGeometry x="1161" y="620" width="120" height="60" as="geometry" />
        </mxCell>
        <mxCell id="MRa9dr4gWbUR_vrnral5-82" value="" style="endArrow=none;html=1;rounded=0;entryX=0;entryY=0.5;entryDx=0;entryDy=0;exitX=1;exitY=0.5;exitDx=0;exitDy=0;" parent="1" source="MRa9dr4gWbUR_vrnral5-80" target="MRa9dr4gWbUR_vrnral5-81" edge="1">
          <mxGeometry width="50" height="50" relative="1" as="geometry">
            <mxPoint x="1231" y="840" as="sourcePoint" />
            <mxPoint x="1281" y="790" as="targetPoint" />
          </mxGeometry>
        </mxCell>
        <mxCell id="MRa9dr4gWbUR_vrnral5-83" value="" style="endArrow=none;html=1;rounded=0;entryX=0;entryY=0.5;entryDx=0;entryDy=0;exitX=1;exitY=0.5;exitDx=0;exitDy=0;" parent="1" edge="1">
          <mxGeometry width="50" height="50" relative="1" as="geometry">
            <mxPoint x="1281" y="649.5" as="sourcePoint" />
            <mxPoint x="1371" y="649.5" as="targetPoint" />
          </mxGeometry>
        </mxCell>
        <mxCell id="MRa9dr4gWbUR_vrnral5-84" value="Nombre" style="ellipse;whiteSpace=wrap;html=1;align=center;" parent="1" vertex="1">
          <mxGeometry x="1361" y="540" width="100" height="40" as="geometry" />
        </mxCell>
        <mxCell id="MRa9dr4gWbUR_vrnral5-85" value="Artista" style="ellipse;whiteSpace=wrap;html=1;align=center;" parent="1" vertex="1">
          <mxGeometry x="1481" y="560" width="100" height="40" as="geometry" />
        </mxCell>
        <mxCell id="MRa9dr4gWbUR_vrnral5-86" value="Año de edición" style="ellipse;whiteSpace=wrap;html=1;align=center;" parent="1" vertex="1">
          <mxGeometry x="1511" y="620" width="100" height="40" as="geometry" />
        </mxCell>
        <mxCell id="MRa9dr4gWbUR_vrnral5-87" value="Disponibilidad" style="ellipse;whiteSpace=wrap;html=1;align=center;" parent="1" vertex="1">
          <mxGeometry x="1296" y="710" width="100" height="40" as="geometry" />
        </mxCell>
        <mxCell id="MRa9dr4gWbUR_vrnral5-88" value="Código" style="ellipse;whiteSpace=wrap;html=1;align=center;fontStyle=4;" parent="1" vertex="1">
          <mxGeometry x="1541" y="680" width="100" height="40" as="geometry" />
        </mxCell>
        <mxCell id="MRa9dr4gWbUR_vrnral5-89" value="Enumeración" style="ellipse;whiteSpace=wrap;html=1;align=center;fontStyle=4;" parent="1" vertex="1">
          <mxGeometry x="1441" y="710" width="100" height="40" as="geometry" />
        </mxCell>
        <mxCell id="MRa9dr4gWbUR_vrnral5-90" value="" style="endArrow=none;html=1;rounded=0;entryX=0.5;entryY=1;entryDx=0;entryDy=0;exitX=0.5;exitY=0;exitDx=0;exitDy=0;" parent="1" source="MRa9dr4gWbUR_vrnral5-79" target="MRa9dr4gWbUR_vrnral5-84" edge="1">
          <mxGeometry width="50" height="50" relative="1" as="geometry">
            <mxPoint x="1231" y="840" as="sourcePoint" />
            <mxPoint x="1281" y="790" as="targetPoint" />
          </mxGeometry>
        </mxCell>
        <mxCell id="MRa9dr4gWbUR_vrnral5-91" value="" style="endArrow=none;html=1;rounded=0;entryX=0;entryY=1;entryDx=0;entryDy=0;" parent="1" target="MRa9dr4gWbUR_vrnral5-85" edge="1">
          <mxGeometry width="50" height="50" relative="1" as="geometry">
            <mxPoint x="1451" y="630" as="sourcePoint" />
            <mxPoint x="1421" y="590" as="targetPoint" />
          </mxGeometry>
        </mxCell>
        <mxCell id="MRa9dr4gWbUR_vrnral5-92" value="" style="endArrow=none;html=1;rounded=0;entryX=0;entryY=0.5;entryDx=0;entryDy=0;exitX=1;exitY=0.5;exitDx=0;exitDy=0;" parent="1" source="MRa9dr4gWbUR_vrnral5-79" target="MRa9dr4gWbUR_vrnral5-86" edge="1">
          <mxGeometry width="50" height="50" relative="1" as="geometry">
            <mxPoint x="1441" y="650" as="sourcePoint" />
            <mxPoint x="1431" y="600" as="targetPoint" />
          </mxGeometry>
        </mxCell>
        <mxCell id="MRa9dr4gWbUR_vrnral5-93" value="" style="endArrow=none;html=1;rounded=0;entryX=0;entryY=0.5;entryDx=0;entryDy=0;exitX=1;exitY=1;exitDx=0;exitDy=0;" parent="1" source="MRa9dr4gWbUR_vrnral5-79" target="MRa9dr4gWbUR_vrnral5-88" edge="1">
          <mxGeometry width="50" height="50" relative="1" as="geometry">
            <mxPoint x="1451" y="660" as="sourcePoint" />
            <mxPoint x="1441" y="610" as="targetPoint" />
          </mxGeometry>
        </mxCell>
        <mxCell id="MRa9dr4gWbUR_vrnral5-94" value="" style="endArrow=none;html=1;rounded=0;entryX=0.44;entryY=0.04;entryDx=0;entryDy=0;exitX=0.75;exitY=1;exitDx=0;exitDy=0;entryPerimeter=0;" parent="1" source="MRa9dr4gWbUR_vrnral5-79" target="MRa9dr4gWbUR_vrnral5-89" edge="1">
          <mxGeometry width="50" height="50" relative="1" as="geometry">
            <mxPoint x="1461" y="670" as="sourcePoint" />
            <mxPoint x="1451" y="620" as="targetPoint" />
          </mxGeometry>
        </mxCell>
        <mxCell id="MRa9dr4gWbUR_vrnral5-95" value="" style="endArrow=none;html=1;rounded=0;exitX=0.5;exitY=0;exitDx=0;exitDy=0;" parent="1" source="MRa9dr4gWbUR_vrnral5-87" edge="1">
          <mxGeometry width="50" height="50" relative="1" as="geometry">
            <mxPoint x="1471" y="680" as="sourcePoint" />
            <mxPoint x="1411" y="670" as="targetPoint" />
          </mxGeometry>
        </mxCell>
        <mxCell id="MRa9dr4gWbUR_vrnral5-96" value="Nombre" style="ellipse;whiteSpace=wrap;html=1;align=center;" parent="1" vertex="1">
          <mxGeometry x="1031" y="530" width="100" height="40" as="geometry" />
        </mxCell>
        <mxCell id="MRa9dr4gWbUR_vrnral5-97" value="Nº Socio" style="ellipse;whiteSpace=wrap;html=1;align=center;fontStyle=4;" parent="1" vertex="1">
          <mxGeometry x="921" y="530" width="100" height="40" as="geometry" />
        </mxCell>
        <mxCell id="MRa9dr4gWbUR_vrnral5-98" value="Apellidos" style="ellipse;whiteSpace=wrap;html=1;align=center;" parent="1" vertex="1">
          <mxGeometry x="841" y="560" width="100" height="40" as="geometry" />
        </mxCell>
        <mxCell id="MRa9dr4gWbUR_vrnral5-99" value="Dirección" style="ellipse;whiteSpace=wrap;html=1;align=center;" parent="1" vertex="1">
          <mxGeometry x="841" y="610" width="100" height="40" as="geometry" />
        </mxCell>
        <mxCell id="MRa9dr4gWbUR_vrnral5-100" value="Teléfono" style="ellipse;whiteSpace=wrap;html=1;align=center;" parent="1" vertex="1">
          <mxGeometry x="851" y="660" width="100" height="40" as="geometry" />
        </mxCell>
        <mxCell id="MRa9dr4gWbUR_vrnral5-101" value="Correo electrónico" style="ellipse;whiteSpace=wrap;html=1;align=center;" parent="1" vertex="1">
          <mxGeometry x="1046" y="710" width="100" height="40" as="geometry" />
        </mxCell>
        <mxCell id="MRa9dr4gWbUR_vrnral5-102" value="" style="endArrow=none;html=1;rounded=0;exitX=0.932;exitY=0.02;exitDx=0;exitDy=0;exitPerimeter=0;entryX=0.5;entryY=1;entryDx=0;entryDy=0;" parent="1" source="MRa9dr4gWbUR_vrnral5-80" target="MRa9dr4gWbUR_vrnral5-96" edge="1">
          <mxGeometry width="50" height="50" relative="1" as="geometry">
            <mxPoint x="1231" y="840" as="sourcePoint" />
            <mxPoint x="1076" y="580" as="targetPoint" />
          </mxGeometry>
        </mxCell>
        <mxCell id="MRa9dr4gWbUR_vrnral5-103" value="" style="endArrow=none;html=1;rounded=0;entryX=0.64;entryY=1.06;entryDx=0;entryDy=0;entryPerimeter=0;exitX=0.5;exitY=0;exitDx=0;exitDy=0;" parent="1" source="MRa9dr4gWbUR_vrnral5-80" target="MRa9dr4gWbUR_vrnral5-97" edge="1">
          <mxGeometry width="50" height="50" relative="1" as="geometry">
            <mxPoint x="1231" y="840" as="sourcePoint" />
            <mxPoint x="1281" y="790" as="targetPoint" />
          </mxGeometry>
        </mxCell>
        <mxCell id="MRa9dr4gWbUR_vrnral5-104" value="" style="endArrow=none;html=1;rounded=0;entryX=1;entryY=1;entryDx=0;entryDy=0;" parent="1" target="MRa9dr4gWbUR_vrnral5-98" edge="1">
          <mxGeometry width="50" height="50" relative="1" as="geometry">
            <mxPoint x="981" y="630" as="sourcePoint" />
            <mxPoint x="1281" y="790" as="targetPoint" />
          </mxGeometry>
        </mxCell>
        <mxCell id="MRa9dr4gWbUR_vrnral5-105" value="" style="endArrow=none;html=1;rounded=0;entryX=1;entryY=0.5;entryDx=0;entryDy=0;exitX=0;exitY=0.5;exitDx=0;exitDy=0;" parent="1" source="MRa9dr4gWbUR_vrnral5-80" target="MRa9dr4gWbUR_vrnral5-99" edge="1">
          <mxGeometry width="50" height="50" relative="1" as="geometry">
            <mxPoint x="1231" y="840" as="sourcePoint" />
            <mxPoint x="1281" y="790" as="targetPoint" />
          </mxGeometry>
        </mxCell>
        <mxCell id="MRa9dr4gWbUR_vrnral5-106" value="" style="endArrow=none;html=1;rounded=0;entryX=0;entryY=1;entryDx=0;entryDy=0;exitX=1;exitY=0.5;exitDx=0;exitDy=0;" parent="1" source="MRa9dr4gWbUR_vrnral5-100" target="MRa9dr4gWbUR_vrnral5-80" edge="1">
          <mxGeometry width="50" height="50" relative="1" as="geometry">
            <mxPoint x="1231" y="840" as="sourcePoint" />
            <mxPoint x="1281" y="790" as="targetPoint" />
          </mxGeometry>
        </mxCell>
        <mxCell id="MRa9dr4gWbUR_vrnral5-107" value="" style="endArrow=none;html=1;rounded=0;entryX=0.5;entryY=1;entryDx=0;entryDy=0;exitX=0.5;exitY=0;exitDx=0;exitDy=0;" parent="1" source="MRa9dr4gWbUR_vrnral5-101" target="MRa9dr4gWbUR_vrnral5-80" edge="1">
          <mxGeometry width="50" height="50" relative="1" as="geometry">
            <mxPoint x="1231" y="840" as="sourcePoint" />
            <mxPoint x="1281" y="790" as="targetPoint" />
          </mxGeometry>
        </mxCell>
        <mxCell id="MRa9dr4gWbUR_vrnral5-108" value="N" style="text;html=1;strokeColor=none;fillColor=none;align=center;verticalAlign=middle;whiteSpace=wrap;rounded=0;" parent="1" vertex="1">
          <mxGeometry x="1131" y="610" width="60" height="30" as="geometry" />
        </mxCell>
        <mxCell id="MRa9dr4gWbUR_vrnral5-109" value="1" style="text;html=1;strokeColor=none;fillColor=none;align=center;verticalAlign=middle;whiteSpace=wrap;rounded=0;" parent="1" vertex="1">
          <mxGeometry x="1241" y="610" width="60" height="30" as="geometry" />
        </mxCell>
        <mxCell id="MRa9dr4gWbUR_vrnral5-114" value="Fecha alquiler" style="ellipse;whiteSpace=wrap;html=1;align=center;" parent="1" vertex="1">
          <mxGeometry x="1140" y="530" width="100" height="40" as="geometry" />
        </mxCell>
        <mxCell id="MRa9dr4gWbUR_vrnral5-115" value="Fecha límite" style="ellipse;whiteSpace=wrap;html=1;align=center;" parent="1" vertex="1">
          <mxGeometry x="1171" y="700" width="100" height="40" as="geometry" />
        </mxCell>
        <mxCell id="MRa9dr4gWbUR_vrnral5-116" value="Fecha devolución" style="ellipse;whiteSpace=wrap;html=1;align=center;" parent="1" vertex="1">
          <mxGeometry x="1250" y="530" width="100" height="40" as="geometry" />
        </mxCell>
        <mxCell id="MRa9dr4gWbUR_vrnral5-123" value="" style="rounded=0;whiteSpace=wrap;html=1;fillColor=#ffe6cc;strokeColor=#d79b00;" parent="1" vertex="1">
          <mxGeometry x="100" y="580" width="530" height="240" as="geometry" />
        </mxCell>
        <mxCell id="MRa9dr4gWbUR_vrnral5-125" value="CLIENTE(&lt;font style=&quot;font-style: italic; text-decoration-line: underline;&quot; color=&quot;#ff1919&quot;&gt;nºSocio,&lt;/font&gt; nombre, apellidos, direccion, telefono, &lt;b&gt;correoElectronico&lt;/b&gt;)" style="text;html=1;strokeColor=none;fillColor=none;align=center;verticalAlign=middle;whiteSpace=wrap;rounded=0;" parent="1" vertex="1">
          <mxGeometry x="151.25" y="600" width="435" height="30" as="geometry" />
        </mxCell>
        <mxCell id="MRa9dr4gWbUR_vrnral5-137" value="" style="endArrow=none;html=1;rounded=0;exitX=0.5;exitY=1;exitDx=0;exitDy=0;" parent="1" source="MRa9dr4gWbUR_vrnral5-114" edge="1">
          <mxGeometry width="50" height="50" relative="1" as="geometry">
            <mxPoint x="1090" y="840" as="sourcePoint" />
            <mxPoint x="1200" y="630" as="targetPoint" />
          </mxGeometry>
        </mxCell>
        <mxCell id="MRa9dr4gWbUR_vrnral5-138" value="" style="endArrow=none;html=1;rounded=0;entryX=0.5;entryY=1;entryDx=0;entryDy=0;" parent="1" source="MRa9dr4gWbUR_vrnral5-81" target="MRa9dr4gWbUR_vrnral5-116" edge="1">
          <mxGeometry width="50" height="50" relative="1" as="geometry">
            <mxPoint x="1090" y="840" as="sourcePoint" />
            <mxPoint x="1140" y="790" as="targetPoint" />
          </mxGeometry>
        </mxCell>
        <mxCell id="MRa9dr4gWbUR_vrnral5-139" value="" style="endArrow=none;html=1;rounded=0;entryX=0.5;entryY=1;entryDx=0;entryDy=0;exitX=0.5;exitY=0;exitDx=0;exitDy=0;" parent="1" source="MRa9dr4gWbUR_vrnral5-115" target="MRa9dr4gWbUR_vrnral5-81" edge="1">
          <mxGeometry width="50" height="50" relative="1" as="geometry">
            <mxPoint x="1090" y="840" as="sourcePoint" />
            <mxPoint x="1140" y="790" as="targetPoint" />
          </mxGeometry>
        </mxCell>
        <mxCell id="MRa9dr4gWbUR_vrnral5-140" value="ALQUILA(&lt;font style=&quot;font-style: italic; text-decoration-line: underline;&quot; color=&quot;#ff1919&quot;&gt;nºSocio, codigoCD, enumeracion,&lt;/font&gt;&lt;font style=&quot;&quot;&gt; fechaAlquiler, fechaDevolucion, fechaLimite&lt;/font&gt;)" style="text;html=1;strokeColor=none;fillColor=none;align=center;verticalAlign=middle;whiteSpace=wrap;rounded=0;" parent="1" vertex="1">
          <mxGeometry x="124.36999999999999" y="680" width="488.75" height="30" as="geometry" />
        </mxCell>
        <mxCell id="MRa9dr4gWbUR_vrnral5-141" value="CD(&lt;font style=&quot;font-style: italic; text-decoration-line: underline;&quot; color=&quot;#ff1919&quot;&gt;codigoCD, enumeracion,&lt;/font&gt; nombre, artista, añoEdicion, disponibilidad)" style="text;html=1;strokeColor=none;fillColor=none;align=center;verticalAlign=middle;whiteSpace=wrap;rounded=0;" parent="1" vertex="1">
          <mxGeometry x="124.36999999999999" y="750" width="488.75" height="30" as="geometry" />
        </mxCell>
        <mxCell id="MRa9dr4gWbUR_vrnral5-142" value="" style="endArrow=classic;html=1;rounded=0;exitX=0.272;exitY=1.12;exitDx=0;exitDy=0;exitPerimeter=0;entryX=0.093;entryY=0.667;entryDx=0;entryDy=0;entryPerimeter=0;" parent="1" source="MRa9dr4gWbUR_vrnral5-140" target="MRa9dr4gWbUR_vrnral5-141" edge="1">
          <mxGeometry width="50" height="50" relative="1" as="geometry">
            <mxPoint x="470" y="840" as="sourcePoint" />
            <mxPoint x="520" y="790" as="targetPoint" />
            <Array as="points">
              <mxPoint x="257" y="730" />
              <mxPoint x="120" y="730" />
              <mxPoint x="120" y="770" />
            </Array>
          </mxGeometry>
        </mxCell>
        <mxCell id="MRa9dr4gWbUR_vrnral5-143" value="" style="endArrow=classic;html=1;rounded=0;exitX=0.409;exitY=1.093;exitDx=0;exitDy=0;exitPerimeter=0;entryX=0.093;entryY=0.333;entryDx=0;entryDy=0;entryPerimeter=0;" parent="1" source="MRa9dr4gWbUR_vrnral5-140" target="MRa9dr4gWbUR_vrnral5-141" edge="1">
          <mxGeometry width="50" height="50" relative="1" as="geometry">
            <mxPoint x="470" y="840" as="sourcePoint" />
            <mxPoint x="160" y="760" as="targetPoint" />
            <Array as="points">
              <mxPoint x="324" y="740" />
              <mxPoint x="140" y="740" />
              <mxPoint x="140" y="760" />
            </Array>
          </mxGeometry>
        </mxCell>
        <mxCell id="MRa9dr4gWbUR_vrnral5-144" value="" style="endArrow=classic;html=1;rounded=0;exitX=0.174;exitY=0.027;exitDx=0;exitDy=0;exitPerimeter=0;entryX=0.089;entryY=1.013;entryDx=0;entryDy=0;entryPerimeter=0;" parent="1" source="MRa9dr4gWbUR_vrnral5-140" target="MRa9dr4gWbUR_vrnral5-125" edge="1">
          <mxGeometry width="50" height="50" relative="1" as="geometry">
            <mxPoint x="470" y="840" as="sourcePoint" />
            <mxPoint x="520" y="790" as="targetPoint" />
            <Array as="points">
              <mxPoint x="209" y="660" />
              <mxPoint x="190" y="660" />
            </Array>
          </mxGeometry>
        </mxCell>
        <mxCell id="u1p2TUHTxzgRom9_Ge5F-1" value="" style="rounded=0;whiteSpace=wrap;html=1;fillColor=#ffe6cc;strokeColor=#d79b00;" vertex="1" parent="1">
          <mxGeometry x="103.74" y="1220" width="530" height="240" as="geometry" />
        </mxCell>
        <mxCell id="u1p2TUHTxzgRom9_Ge5F-2" value="ÁREA(&lt;font color=&quot;#ff0000&quot;&gt;&lt;i&gt;&lt;u&gt;numArea)&lt;/u&gt;&lt;/i&gt;&lt;/font&gt;" style="text;html=1;strokeColor=none;fillColor=none;align=center;verticalAlign=middle;whiteSpace=wrap;rounded=0;" vertex="1" parent="1">
          <mxGeometry x="154.99" y="1240" width="435" height="30" as="geometry" />
        </mxCell>
        <mxCell id="u1p2TUHTxzgRom9_Ge5F-8" value="Municipio" style="rounded=1;arcSize=10;whiteSpace=wrap;html=1;align=center;" vertex="1" parent="1">
          <mxGeometry x="1490" y="940" width="100" height="40" as="geometry" />
        </mxCell>
        <mxCell id="u1p2TUHTxzgRom9_Ge5F-9" value="Vivienda" style="rounded=1;arcSize=10;whiteSpace=wrap;html=1;align=center;" vertex="1" parent="1">
          <mxGeometry x="1190" y="940" width="100" height="40" as="geometry" />
        </mxCell>
        <mxCell id="u1p2TUHTxzgRom9_Ge5F-10" value="Persona" style="rounded=1;arcSize=10;whiteSpace=wrap;html=1;align=center;" vertex="1" parent="1">
          <mxGeometry x="870" y="940" width="100" height="40" as="geometry" />
        </mxCell>
        <mxCell id="u1p2TUHTxzgRom9_Ge5F-11" value="Tiene" style="shape=rhombus;perimeter=rhombusPerimeter;whiteSpace=wrap;html=1;align=center;" vertex="1" parent="1">
          <mxGeometry x="1020" y="840" width="120" height="60" as="geometry" />
        </mxCell>
        <mxCell id="u1p2TUHTxzgRom9_Ge5F-12" value="Compone" style="shape=rhombus;perimeter=rhombusPerimeter;whiteSpace=wrap;html=1;align=center;" vertex="1" parent="1">
          <mxGeometry x="1330" y="930" width="120" height="60" as="geometry" />
        </mxCell>
        <mxCell id="u1p2TUHTxzgRom9_Ge5F-13" value="" style="endArrow=none;html=1;rounded=0;exitX=1;exitY=0.5;exitDx=0;exitDy=0;entryX=0;entryY=0.5;entryDx=0;entryDy=0;" edge="1" parent="1" source="u1p2TUHTxzgRom9_Ge5F-10" target="u1p2TUHTxzgRom9_Ge5F-11">
          <mxGeometry width="50" height="50" relative="1" as="geometry">
            <mxPoint x="1240" y="1000" as="sourcePoint" />
            <mxPoint x="1290" y="950" as="targetPoint" />
          </mxGeometry>
        </mxCell>
        <mxCell id="u1p2TUHTxzgRom9_Ge5F-14" value="" style="endArrow=none;html=1;rounded=0;exitX=1;exitY=0.5;exitDx=0;exitDy=0;entryX=0;entryY=0.5;entryDx=0;entryDy=0;" edge="1" parent="1" source="u1p2TUHTxzgRom9_Ge5F-11" target="u1p2TUHTxzgRom9_Ge5F-9">
          <mxGeometry width="50" height="50" relative="1" as="geometry">
            <mxPoint x="980" y="970" as="sourcePoint" />
            <mxPoint x="1030" y="970" as="targetPoint" />
          </mxGeometry>
        </mxCell>
        <mxCell id="u1p2TUHTxzgRom9_Ge5F-15" value="" style="endArrow=none;html=1;rounded=0;exitX=1;exitY=0.5;exitDx=0;exitDy=0;entryX=0;entryY=0.5;entryDx=0;entryDy=0;" edge="1" parent="1" source="u1p2TUHTxzgRom9_Ge5F-9" target="u1p2TUHTxzgRom9_Ge5F-12">
          <mxGeometry width="50" height="50" relative="1" as="geometry">
            <mxPoint x="990" y="980" as="sourcePoint" />
            <mxPoint x="1040" y="980" as="targetPoint" />
          </mxGeometry>
        </mxCell>
        <mxCell id="u1p2TUHTxzgRom9_Ge5F-16" value="" style="endArrow=none;html=1;rounded=0;exitX=1;exitY=0.5;exitDx=0;exitDy=0;entryX=0;entryY=0.5;entryDx=0;entryDy=0;" edge="1" parent="1" source="u1p2TUHTxzgRom9_Ge5F-12" target="u1p2TUHTxzgRom9_Ge5F-8">
          <mxGeometry width="50" height="50" relative="1" as="geometry">
            <mxPoint x="1000" y="990" as="sourcePoint" />
            <mxPoint x="1050" y="990" as="targetPoint" />
          </mxGeometry>
        </mxCell>
        <mxCell id="u1p2TUHTxzgRom9_Ge5F-17" value="DNI" style="ellipse;whiteSpace=wrap;html=1;align=center;fontStyle=4;" vertex="1" parent="1">
          <mxGeometry x="870" y="1010" width="100" height="40" as="geometry" />
        </mxCell>
        <mxCell id="u1p2TUHTxzgRom9_Ge5F-18" value="" style="endArrow=none;html=1;rounded=0;" edge="1" parent="1" source="u1p2TUHTxzgRom9_Ge5F-17" target="u1p2TUHTxzgRom9_Ge5F-10">
          <mxGeometry width="50" height="50" relative="1" as="geometry">
            <mxPoint x="1240" y="1080" as="sourcePoint" />
            <mxPoint x="1290" y="1030" as="targetPoint" />
          </mxGeometry>
        </mxCell>
        <mxCell id="u1p2TUHTxzgRom9_Ge5F-19" value="" style="endArrow=none;html=1;rounded=0;entryX=0.5;entryY=1;entryDx=0;entryDy=0;exitX=0.5;exitY=0;exitDx=0;exitDy=0;" edge="1" parent="1" target="u1p2TUHTxzgRom9_Ge5F-9">
          <mxGeometry width="50" height="50" relative="1" as="geometry">
            <mxPoint x="1240" y="1010" as="sourcePoint" />
            <mxPoint x="1290" y="1030" as="targetPoint" />
          </mxGeometry>
        </mxCell>
        <mxCell id="u1p2TUHTxzgRom9_Ge5F-20" value="1" style="text;html=1;strokeColor=none;fillColor=none;align=center;verticalAlign=middle;whiteSpace=wrap;rounded=0;" vertex="1" parent="1">
          <mxGeometry x="990" y="920" width="60" height="30" as="geometry" />
        </mxCell>
        <mxCell id="u1p2TUHTxzgRom9_Ge5F-21" value="Código registral" style="ellipse;whiteSpace=wrap;html=1;align=center;fontStyle=4;" vertex="1" parent="1">
          <mxGeometry x="1190" y="1010" width="100" height="40" as="geometry" />
        </mxCell>
        <mxCell id="u1p2TUHTxzgRom9_Ge5F-22" value="1" style="text;html=1;strokeColor=none;fillColor=none;align=center;verticalAlign=middle;whiteSpace=wrap;rounded=0;" vertex="1" parent="1">
          <mxGeometry x="1110" y="920" width="60" height="30" as="geometry" />
        </mxCell>
        <mxCell id="u1p2TUHTxzgRom9_Ge5F-23" value="Habita" style="shape=rhombus;perimeter=rhombusPerimeter;whiteSpace=wrap;html=1;align=center;" vertex="1" parent="1">
          <mxGeometry x="1020" y="930" width="120" height="60" as="geometry" />
        </mxCell>
        <mxCell id="u1p2TUHTxzgRom9_Ge5F-24" value="" style="endArrow=none;html=1;rounded=0;exitX=1;exitY=0.5;exitDx=0;exitDy=0;entryX=0;entryY=0.5;entryDx=0;entryDy=0;" edge="1" parent="1" source="u1p2TUHTxzgRom9_Ge5F-10" target="u1p2TUHTxzgRom9_Ge5F-23">
          <mxGeometry width="50" height="50" relative="1" as="geometry">
            <mxPoint x="1240" y="1080" as="sourcePoint" />
            <mxPoint x="1290" y="1030" as="targetPoint" />
          </mxGeometry>
        </mxCell>
        <mxCell id="u1p2TUHTxzgRom9_Ge5F-25" value="" style="endArrow=none;html=1;rounded=0;exitX=1;exitY=0.5;exitDx=0;exitDy=0;" edge="1" parent="1" source="u1p2TUHTxzgRom9_Ge5F-23" target="u1p2TUHTxzgRom9_Ge5F-9">
          <mxGeometry width="50" height="50" relative="1" as="geometry">
            <mxPoint x="1240" y="1080" as="sourcePoint" />
            <mxPoint x="1290" y="1030" as="targetPoint" />
          </mxGeometry>
        </mxCell>
        <mxCell id="u1p2TUHTxzgRom9_Ge5F-26" value="1" style="text;html=1;strokeColor=none;fillColor=none;align=center;verticalAlign=middle;whiteSpace=wrap;rounded=0;" vertex="1" parent="1">
          <mxGeometry x="990" y="820" width="60" height="30" as="geometry" />
        </mxCell>
        <mxCell id="u1p2TUHTxzgRom9_Ge5F-27" value="N" style="text;html=1;strokeColor=none;fillColor=none;align=center;verticalAlign=middle;whiteSpace=wrap;rounded=0;" vertex="1" parent="1">
          <mxGeometry x="1110" y="820" width="60" height="30" as="geometry" />
        </mxCell>
        <mxCell id="u1p2TUHTxzgRom9_Ge5F-28" value="Código de municipio" style="ellipse;whiteSpace=wrap;html=1;align=center;fontStyle=4;" vertex="1" parent="1">
          <mxGeometry x="1490" y="1010" width="100" height="40" as="geometry" />
        </mxCell>
        <mxCell id="u1p2TUHTxzgRom9_Ge5F-29" value="" style="endArrow=none;html=1;rounded=0;entryX=0.5;entryY=1;entryDx=0;entryDy=0;exitX=0.5;exitY=0;exitDx=0;exitDy=0;" edge="1" parent="1" source="u1p2TUHTxzgRom9_Ge5F-28" target="u1p2TUHTxzgRom9_Ge5F-8">
          <mxGeometry width="50" height="50" relative="1" as="geometry">
            <mxPoint x="1240" y="1080" as="sourcePoint" />
            <mxPoint x="1290" y="1030" as="targetPoint" />
          </mxGeometry>
        </mxCell>
        <mxCell id="u1p2TUHTxzgRom9_Ge5F-30" value="N" style="text;html=1;strokeColor=none;fillColor=none;align=center;verticalAlign=middle;whiteSpace=wrap;rounded=0;" vertex="1" parent="1">
          <mxGeometry x="1300" y="910" width="60" height="30" as="geometry" />
        </mxCell>
        <mxCell id="u1p2TUHTxzgRom9_Ge5F-31" value="1" style="text;html=1;strokeColor=none;fillColor=none;align=center;verticalAlign=middle;whiteSpace=wrap;rounded=0;" vertex="1" parent="1">
          <mxGeometry x="1420" y="910" width="60" height="30" as="geometry" />
        </mxCell>
        <mxCell id="u1p2TUHTxzgRom9_Ge5F-43" value="Tramo" style="whiteSpace=wrap;html=1;align=center;" vertex="1" parent="1">
          <mxGeometry x="1080" y="1300" width="100" height="40" as="geometry" />
        </mxCell>
        <mxCell id="u1p2TUHTxzgRom9_Ge5F-44" value="Carretera" style="whiteSpace=wrap;html=1;align=center;" vertex="1" parent="1">
          <mxGeometry x="1080" y="1460" width="100" height="40" as="geometry" />
        </mxCell>
        <mxCell id="u1p2TUHTxzgRom9_Ge5F-45" value="Área" style="whiteSpace=wrap;html=1;align=center;" vertex="1" parent="1">
          <mxGeometry x="1080" y="1160" width="100" height="40" as="geometry" />
        </mxCell>
        <mxCell id="u1p2TUHTxzgRom9_Ge5F-46" value="Municipio" style="whiteSpace=wrap;html=1;align=center;" vertex="1" parent="1">
          <mxGeometry x="1415" y="1300" width="100" height="40" as="geometry" />
        </mxCell>
        <mxCell id="u1p2TUHTxzgRom9_Ge5F-47" value="Forma" style="shape=rhombus;perimeter=rhombusPerimeter;whiteSpace=wrap;html=1;align=center;" vertex="1" parent="1">
          <mxGeometry x="1070" y="1370" width="120" height="60" as="geometry" />
        </mxCell>
        <mxCell id="u1p2TUHTxzgRom9_Ge5F-48" value="Agrupa" style="shape=rhombus;perimeter=rhombusPerimeter;whiteSpace=wrap;html=1;align=center;" vertex="1" parent="1">
          <mxGeometry x="1070" y="1220" width="120" height="60" as="geometry" />
        </mxCell>
        <mxCell id="u1p2TUHTxzgRom9_Ge5F-49" value="Pasa por" style="shape=rhombus;perimeter=rhombusPerimeter;whiteSpace=wrap;html=1;align=center;" vertex="1" parent="1">
          <mxGeometry x="1235" y="1290" width="120" height="60" as="geometry" />
        </mxCell>
        <mxCell id="u1p2TUHTxzgRom9_Ge5F-50" value="" style="endArrow=none;html=1;rounded=0;entryX=0.5;entryY=1;entryDx=0;entryDy=0;" edge="1" parent="1" target="u1p2TUHTxzgRom9_Ge5F-45">
          <mxGeometry width="50" height="50" relative="1" as="geometry">
            <mxPoint x="1130" y="1220" as="sourcePoint" />
            <mxPoint x="1225" y="1380" as="targetPoint" />
          </mxGeometry>
        </mxCell>
        <mxCell id="u1p2TUHTxzgRom9_Ge5F-51" value="" style="endArrow=none;html=1;rounded=0;entryX=0.5;entryY=1;entryDx=0;entryDy=0;" edge="1" parent="1" source="u1p2TUHTxzgRom9_Ge5F-43" target="u1p2TUHTxzgRom9_Ge5F-48">
          <mxGeometry width="50" height="50" relative="1" as="geometry">
            <mxPoint x="1175" y="1430" as="sourcePoint" />
            <mxPoint x="1225" y="1380" as="targetPoint" />
          </mxGeometry>
        </mxCell>
        <mxCell id="u1p2TUHTxzgRom9_Ge5F-52" value="" style="endArrow=none;html=1;rounded=0;entryX=0.5;entryY=1;entryDx=0;entryDy=0;exitX=0.5;exitY=0;exitDx=0;exitDy=0;" edge="1" parent="1" source="u1p2TUHTxzgRom9_Ge5F-47" target="u1p2TUHTxzgRom9_Ge5F-43">
          <mxGeometry width="50" height="50" relative="1" as="geometry">
            <mxPoint x="1175" y="1430" as="sourcePoint" />
            <mxPoint x="1225" y="1380" as="targetPoint" />
          </mxGeometry>
        </mxCell>
        <mxCell id="u1p2TUHTxzgRom9_Ge5F-53" value="" style="endArrow=none;html=1;rounded=0;entryX=0.5;entryY=1;entryDx=0;entryDy=0;exitX=0.5;exitY=0;exitDx=0;exitDy=0;" edge="1" parent="1" source="u1p2TUHTxzgRom9_Ge5F-44" target="u1p2TUHTxzgRom9_Ge5F-47">
          <mxGeometry width="50" height="50" relative="1" as="geometry">
            <mxPoint x="1175" y="1430" as="sourcePoint" />
            <mxPoint x="1225" y="1380" as="targetPoint" />
          </mxGeometry>
        </mxCell>
        <mxCell id="u1p2TUHTxzgRom9_Ge5F-54" value="" style="endArrow=none;html=1;rounded=0;entryX=1;entryY=0.5;entryDx=0;entryDy=0;exitX=0;exitY=0.5;exitDx=0;exitDy=0;" edge="1" parent="1" source="u1p2TUHTxzgRom9_Ge5F-49" target="u1p2TUHTxzgRom9_Ge5F-43">
          <mxGeometry width="50" height="50" relative="1" as="geometry">
            <mxPoint x="1175" y="1430" as="sourcePoint" />
            <mxPoint x="1225" y="1380" as="targetPoint" />
          </mxGeometry>
        </mxCell>
        <mxCell id="u1p2TUHTxzgRom9_Ge5F-55" value="" style="endArrow=none;html=1;rounded=0;entryX=0;entryY=0.5;entryDx=0;entryDy=0;exitX=1;exitY=0.5;exitDx=0;exitDy=0;" edge="1" parent="1" source="u1p2TUHTxzgRom9_Ge5F-49" target="u1p2TUHTxzgRom9_Ge5F-46">
          <mxGeometry width="50" height="50" relative="1" as="geometry">
            <mxPoint x="1175" y="1430" as="sourcePoint" />
            <mxPoint x="1225" y="1380" as="targetPoint" />
          </mxGeometry>
        </mxCell>
        <mxCell id="u1p2TUHTxzgRom9_Ge5F-56" value="Km entrada" style="ellipse;whiteSpace=wrap;html=1;align=center;" vertex="1" parent="1">
          <mxGeometry x="1245" y="1230" width="100" height="40" as="geometry" />
        </mxCell>
        <mxCell id="u1p2TUHTxzgRom9_Ge5F-57" value="Km salida" style="ellipse;whiteSpace=wrap;html=1;align=center;" vertex="1" parent="1">
          <mxGeometry x="1245" y="1380" width="100" height="40" as="geometry" />
        </mxCell>
        <mxCell id="u1p2TUHTxzgRom9_Ge5F-58" value="" style="endArrow=none;html=1;rounded=0;entryX=0.5;entryY=1;entryDx=0;entryDy=0;exitX=0.5;exitY=0;exitDx=0;exitDy=0;" edge="1" parent="1" source="u1p2TUHTxzgRom9_Ge5F-49" target="u1p2TUHTxzgRom9_Ge5F-56">
          <mxGeometry width="50" height="50" relative="1" as="geometry">
            <mxPoint x="1175" y="1430" as="sourcePoint" />
            <mxPoint x="1225" y="1380" as="targetPoint" />
          </mxGeometry>
        </mxCell>
        <mxCell id="u1p2TUHTxzgRom9_Ge5F-59" value="" style="endArrow=none;html=1;rounded=0;entryX=0.5;entryY=1;entryDx=0;entryDy=0;exitX=0.5;exitY=0;exitDx=0;exitDy=0;" edge="1" parent="1" source="u1p2TUHTxzgRom9_Ge5F-57" target="u1p2TUHTxzgRom9_Ge5F-49">
          <mxGeometry width="50" height="50" relative="1" as="geometry">
            <mxPoint x="1175" y="1430" as="sourcePoint" />
            <mxPoint x="1225" y="1380" as="targetPoint" />
          </mxGeometry>
        </mxCell>
        <mxCell id="u1p2TUHTxzgRom9_Ge5F-60" value="" style="endArrow=none;html=1;rounded=0;exitX=0;exitY=0.5;exitDx=0;exitDy=0;entryX=1;entryY=0.5;entryDx=0;entryDy=0;" edge="1" parent="1" source="u1p2TUHTxzgRom9_Ge5F-44">
          <mxGeometry width="50" height="50" relative="1" as="geometry">
            <mxPoint x="1175" y="1430" as="sourcePoint" />
            <mxPoint x="1025" y="1480" as="targetPoint" />
          </mxGeometry>
        </mxCell>
        <mxCell id="u1p2TUHTxzgRom9_Ge5F-61" value="Nombre" style="ellipse;whiteSpace=wrap;html=1;align=center;fontStyle=4;" vertex="1" parent="1">
          <mxGeometry x="945" y="1460" width="100" height="40" as="geometry" />
        </mxCell>
        <mxCell id="u1p2TUHTxzgRom9_Ge5F-62" value="Código Municipio" style="ellipse;whiteSpace=wrap;html=1;align=center;fontStyle=4;" vertex="1" parent="1">
          <mxGeometry x="1415" y="1230" width="100" height="40" as="geometry" />
        </mxCell>
        <mxCell id="u1p2TUHTxzgRom9_Ge5F-63" value="" style="endArrow=none;html=1;rounded=0;entryX=0.5;entryY=1;entryDx=0;entryDy=0;" edge="1" parent="1" source="u1p2TUHTxzgRom9_Ge5F-46" target="u1p2TUHTxzgRom9_Ge5F-62">
          <mxGeometry width="50" height="50" relative="1" as="geometry">
            <mxPoint x="1175" y="1430" as="sourcePoint" />
            <mxPoint x="1225" y="1380" as="targetPoint" />
          </mxGeometry>
        </mxCell>
        <mxCell id="u1p2TUHTxzgRom9_Ge5F-64" value="Número Área" style="ellipse;whiteSpace=wrap;html=1;align=center;fontStyle=4;" vertex="1" parent="1">
          <mxGeometry x="955" y="1160" width="100" height="40" as="geometry" />
        </mxCell>
        <mxCell id="u1p2TUHTxzgRom9_Ge5F-65" value="Código Tramo" style="ellipse;whiteSpace=wrap;html=1;align=center;fontStyle=4;" vertex="1" parent="1">
          <mxGeometry x="955" y="1300" width="100" height="40" as="geometry" />
        </mxCell>
        <mxCell id="u1p2TUHTxzgRom9_Ge5F-66" value="" style="endArrow=none;html=1;rounded=0;entryX=0;entryY=0.5;entryDx=0;entryDy=0;exitX=1;exitY=0.5;exitDx=0;exitDy=0;" edge="1" parent="1" source="u1p2TUHTxzgRom9_Ge5F-65" target="u1p2TUHTxzgRom9_Ge5F-43">
          <mxGeometry width="50" height="50" relative="1" as="geometry">
            <mxPoint x="1175" y="1430" as="sourcePoint" />
            <mxPoint x="1225" y="1380" as="targetPoint" />
          </mxGeometry>
        </mxCell>
        <mxCell id="u1p2TUHTxzgRom9_Ge5F-67" value="" style="endArrow=none;html=1;rounded=0;entryX=0;entryY=0.5;entryDx=0;entryDy=0;exitX=1;exitY=0.5;exitDx=0;exitDy=0;" edge="1" parent="1" source="u1p2TUHTxzgRom9_Ge5F-64" target="u1p2TUHTxzgRom9_Ge5F-45">
          <mxGeometry width="50" height="50" relative="1" as="geometry">
            <mxPoint x="1175" y="1430" as="sourcePoint" />
            <mxPoint x="1225" y="1380" as="targetPoint" />
          </mxGeometry>
        </mxCell>
        <mxCell id="u1p2TUHTxzgRom9_Ge5F-68" value="1" style="text;html=1;strokeColor=none;fillColor=none;align=center;verticalAlign=middle;whiteSpace=wrap;rounded=0;" vertex="1" parent="1">
          <mxGeometry x="1130" y="1200" width="60" height="30" as="geometry" />
        </mxCell>
        <mxCell id="u1p2TUHTxzgRom9_Ge5F-69" value="N" style="text;html=1;strokeColor=none;fillColor=none;align=center;verticalAlign=middle;whiteSpace=wrap;rounded=0;" vertex="1" parent="1">
          <mxGeometry x="1130" y="1270" width="60" height="30" as="geometry" />
        </mxCell>
        <mxCell id="u1p2TUHTxzgRom9_Ge5F-70" value="N" style="text;html=1;strokeColor=none;fillColor=none;align=center;verticalAlign=middle;whiteSpace=wrap;rounded=0;" vertex="1" parent="1">
          <mxGeometry x="1130" y="1350" width="60" height="30" as="geometry" />
        </mxCell>
        <mxCell id="u1p2TUHTxzgRom9_Ge5F-71" value="1" style="text;html=1;strokeColor=none;fillColor=none;align=center;verticalAlign=middle;whiteSpace=wrap;rounded=0;" vertex="1" parent="1">
          <mxGeometry x="1130" y="1430" width="60" height="30" as="geometry" />
        </mxCell>
        <mxCell id="u1p2TUHTxzgRom9_Ge5F-72" value="N" style="text;html=1;strokeColor=none;fillColor=none;align=center;verticalAlign=middle;whiteSpace=wrap;rounded=0;" vertex="1" parent="1">
          <mxGeometry x="1225" y="1280" width="60" height="30" as="geometry" />
        </mxCell>
        <mxCell id="u1p2TUHTxzgRom9_Ge5F-73" value="1" style="text;html=1;strokeColor=none;fillColor=none;align=center;verticalAlign=middle;whiteSpace=wrap;rounded=0;" vertex="1" parent="1">
          <mxGeometry x="1325" y="1280" width="60" height="30" as="geometry" />
        </mxCell>
        <mxCell id="u1p2TUHTxzgRom9_Ge5F-74" value="TRAMO(&lt;font color=&quot;#ff0000&quot;&gt;&lt;u&gt;&lt;i&gt;codTramo&lt;/i&gt;&lt;/u&gt;&lt;/font&gt;, &lt;font color=&quot;#ff0000&quot;&gt;numArea, nombreCarretera, codMunicipio&lt;i&gt;&lt;u&gt;)&lt;/u&gt;&lt;/i&gt;&lt;/font&gt;" style="text;html=1;strokeColor=none;fillColor=none;align=center;verticalAlign=middle;whiteSpace=wrap;rounded=0;" vertex="1" parent="1">
          <mxGeometry x="154.99" y="1300" width="435" height="30" as="geometry" />
        </mxCell>
        <mxCell id="u1p2TUHTxzgRom9_Ge5F-75" value="CARRETERA(&lt;font color=&quot;#ff0000&quot;&gt;&lt;u&gt;&lt;i&gt;nombreCarretera&lt;/i&gt;&lt;/u&gt;&lt;i&gt;&lt;u&gt;)&lt;/u&gt;&lt;/i&gt;&lt;/font&gt;" style="text;html=1;strokeColor=none;fillColor=none;align=center;verticalAlign=middle;whiteSpace=wrap;rounded=0;" vertex="1" parent="1">
          <mxGeometry x="147.5" y="1350" width="435" height="30" as="geometry" />
        </mxCell>
        <mxCell id="u1p2TUHTxzgRom9_Ge5F-76" value="MUNICIPIO(&lt;font color=&quot;#ff0000&quot;&gt;&lt;u&gt;&lt;i&gt;codMunicipio&lt;/i&gt;&lt;/u&gt;&lt;i&gt;&lt;u&gt;)&lt;/u&gt;&lt;/i&gt;&lt;/font&gt;" style="text;html=1;strokeColor=none;fillColor=none;align=center;verticalAlign=middle;whiteSpace=wrap;rounded=0;" vertex="1" parent="1">
          <mxGeometry x="151.25" y="1410" width="435" height="30" as="geometry" />
        </mxCell>
        <mxCell id="u1p2TUHTxzgRom9_Ge5F-77" value="" style="endArrow=classic;html=1;rounded=0;exitX=0.441;exitY=0;exitDx=0;exitDy=0;exitPerimeter=0;entryX=0.439;entryY=0.987;entryDx=0;entryDy=0;entryPerimeter=0;" edge="1" parent="1" source="u1p2TUHTxzgRom9_Ge5F-74" target="u1p2TUHTxzgRom9_Ge5F-2">
          <mxGeometry width="50" height="50" relative="1" as="geometry">
            <mxPoint x="490" y="1320" as="sourcePoint" />
            <mxPoint x="540" y="1270" as="targetPoint" />
          </mxGeometry>
        </mxCell>
        <mxCell id="u1p2TUHTxzgRom9_Ge5F-78" value="" style="endArrow=classic;html=1;rounded=0;exitX=0.592;exitY=0;exitDx=0;exitDy=0;exitPerimeter=0;" edge="1" parent="1" source="u1p2TUHTxzgRom9_Ge5F-74">
          <mxGeometry width="50" height="50" relative="1" as="geometry">
            <mxPoint x="490" y="1320" as="sourcePoint" />
            <mxPoint x="270" y="1365" as="targetPoint" />
            <Array as="points">
              <mxPoint x="413" y="1290" />
              <mxPoint x="160" y="1290" />
              <mxPoint x="160" y="1365" />
            </Array>
          </mxGeometry>
        </mxCell>
        <mxCell id="u1p2TUHTxzgRom9_Ge5F-79" value="" style="endArrow=classic;html=1;rounded=0;exitX=0.792;exitY=0;exitDx=0;exitDy=0;exitPerimeter=0;entryX=0.319;entryY=0.333;entryDx=0;entryDy=0;entryPerimeter=0;" edge="1" parent="1" source="u1p2TUHTxzgRom9_Ge5F-74" target="u1p2TUHTxzgRom9_Ge5F-76">
          <mxGeometry width="50" height="50" relative="1" as="geometry">
            <mxPoint x="490" y="1320" as="sourcePoint" />
            <mxPoint x="540" y="1270" as="targetPoint" />
            <Array as="points">
              <mxPoint x="500" y="1290" />
              <mxPoint x="600" y="1290" />
              <mxPoint x="600" y="1400" />
              <mxPoint x="270" y="1400" />
              <mxPoint x="270" y="1420" />
            </Array>
          </mxGeometry>
        </mxCell>
        <mxCell id="u1p2TUHTxzgRom9_Ge5F-88" value="" style="rounded=0;whiteSpace=wrap;html=1;fillColor=#ffe6cc;strokeColor=#d79b00;" vertex="1" parent="1">
          <mxGeometry x="107.49000000000001" y="880" width="530" height="240" as="geometry" />
        </mxCell>
        <mxCell id="u1p2TUHTxzgRom9_Ge5F-89" value="PERSONA(&lt;font color=&quot;#ff0000&quot;&gt;&lt;i style=&quot;text-decoration-line: underline;&quot;&gt;DNI,&lt;/i&gt;codRegistral&lt;i&gt;&lt;u&gt;)&lt;/u&gt;&lt;/i&gt;&lt;/font&gt;" style="text;html=1;strokeColor=none;fillColor=none;align=center;verticalAlign=middle;whiteSpace=wrap;rounded=0;" vertex="1" parent="1">
          <mxGeometry x="158.74" y="900" width="435" height="30" as="geometry" />
        </mxCell>
        <mxCell id="u1p2TUHTxzgRom9_Ge5F-96" value="VIVIENDA(&lt;font color=&quot;#ff0000&quot;&gt;&lt;u style=&quot;font-style: italic;&quot;&gt;codRegistral,&lt;/u&gt;dni, codMunicipio&lt;i&gt;&lt;u&gt;)&lt;/u&gt;&lt;/i&gt;&lt;/font&gt;" style="text;html=1;strokeColor=none;fillColor=none;align=center;verticalAlign=middle;whiteSpace=wrap;rounded=0;" vertex="1" parent="1">
          <mxGeometry x="151.25" y="985" width="435" height="30" as="geometry" />
        </mxCell>
        <mxCell id="u1p2TUHTxzgRom9_Ge5F-97" value="MUNICIPIO(&lt;font color=&quot;#ff0000&quot;&gt;&lt;u&gt;&lt;i&gt;codMunicipio&lt;/i&gt;&lt;/u&gt;&lt;i&gt;&lt;u&gt;)&lt;/u&gt;&lt;/i&gt;&lt;/font&gt;" style="text;html=1;strokeColor=none;fillColor=none;align=center;verticalAlign=middle;whiteSpace=wrap;rounded=0;" vertex="1" parent="1">
          <mxGeometry x="151.25" y="1050" width="435" height="30" as="geometry" />
        </mxCell>
        <mxCell id="u1p2TUHTxzgRom9_Ge5F-98" value="" style="endArrow=classic;html=1;rounded=0;exitX=0.56;exitY=-0.1;exitDx=0;exitDy=0;exitPerimeter=0;" edge="1" parent="1" source="u1p2TUHTxzgRom9_Ge5F-96">
          <mxGeometry width="50" height="50" relative="1" as="geometry">
            <mxPoint x="810" y="1020" as="sourcePoint" />
            <mxPoint x="290" y="910" as="targetPoint" />
            <Array as="points">
              <mxPoint x="395" y="960" />
              <mxPoint x="260" y="960" />
              <mxPoint x="260" y="910" />
            </Array>
          </mxGeometry>
        </mxCell>
        <mxCell id="u1p2TUHTxzgRom9_Ge5F-99" value="" style="endArrow=classic;html=1;rounded=0;exitX=0.589;exitY=1.067;exitDx=0;exitDy=0;exitPerimeter=0;" edge="1" parent="1" source="u1p2TUHTxzgRom9_Ge5F-89">
          <mxGeometry width="50" height="50" relative="1" as="geometry">
            <mxPoint x="810" y="1020" as="sourcePoint" />
            <mxPoint x="250" y="1000" as="targetPoint" />
            <Array as="points">
              <mxPoint x="415" y="950" />
              <mxPoint x="210" y="950" />
              <mxPoint x="210" y="1000" />
            </Array>
          </mxGeometry>
        </mxCell>
        <mxCell id="u1p2TUHTxzgRom9_Ge5F-100" value="" style="endArrow=classic;html=1;rounded=0;exitX=0.666;exitY=1.1;exitDx=0;exitDy=0;exitPerimeter=0;" edge="1" parent="1" source="u1p2TUHTxzgRom9_Ge5F-96">
          <mxGeometry width="50" height="50" relative="1" as="geometry">
            <mxPoint x="810" y="1020" as="sourcePoint" />
            <mxPoint x="290" y="1060" as="targetPoint" />
            <Array as="points">
              <mxPoint x="441" y="1040" />
              <mxPoint x="260" y="1040" />
              <mxPoint x="260" y="1060" />
            </Array>
          </mxGeometry>
        </mxCell>
        <mxCell id="u1p2TUHTxzgRom9_Ge5F-101" value="Apartamento" style="whiteSpace=wrap;html=1;align=center;" vertex="1" parent="1">
          <mxGeometry x="1131" y="1760" width="100" height="40" as="geometry" />
        </mxCell>
        <mxCell id="u1p2TUHTxzgRom9_Ge5F-102" value="Zona" style="whiteSpace=wrap;html=1;align=center;" vertex="1" parent="1">
          <mxGeometry x="1441" y="1760" width="100" height="40" as="geometry" />
        </mxCell>
        <mxCell id="u1p2TUHTxzgRom9_Ge5F-103" value="Propietario" style="whiteSpace=wrap;html=1;align=center;" vertex="1" parent="1">
          <mxGeometry x="801" y="1750" width="100" height="40" as="geometry" />
        </mxCell>
        <mxCell id="u1p2TUHTxzgRom9_Ge5F-104" value="Compra" style="shape=rhombus;perimeter=rhombusPerimeter;whiteSpace=wrap;html=1;align=center;" vertex="1" parent="1">
          <mxGeometry x="961" y="1680" width="120" height="60" as="geometry" />
        </mxCell>
        <mxCell id="u1p2TUHTxzgRom9_Ge5F-105" value="Fecha" style="ellipse;whiteSpace=wrap;html=1;align=center;" vertex="1" parent="1">
          <mxGeometry x="861" y="1610" width="100" height="40" as="geometry" />
        </mxCell>
        <mxCell id="u1p2TUHTxzgRom9_Ge5F-106" value="Importe total" style="ellipse;whiteSpace=wrap;html=1;align=center;" vertex="1" parent="1">
          <mxGeometry x="1081" y="1610" width="100" height="40" as="geometry" />
        </mxCell>
        <mxCell id="u1p2TUHTxzgRom9_Ge5F-107" value="Reserva" style="shape=rhombus;perimeter=rhombusPerimeter;whiteSpace=wrap;html=1;align=center;" vertex="1" parent="1">
          <mxGeometry x="961" y="1800" width="120" height="60" as="geometry" />
        </mxCell>
        <mxCell id="u1p2TUHTxzgRom9_Ge5F-108" value="Fecha reserva" style="ellipse;whiteSpace=wrap;html=1;align=center;" vertex="1" parent="1">
          <mxGeometry x="846" y="1880" width="100" height="40" as="geometry" />
        </mxCell>
        <mxCell id="u1p2TUHTxzgRom9_Ge5F-109" value="Fecha llegada" style="ellipse;whiteSpace=wrap;html=1;align=center;" vertex="1" parent="1">
          <mxGeometry x="1011" y="1910" width="100" height="40" as="geometry" />
        </mxCell>
        <mxCell id="u1p2TUHTxzgRom9_Ge5F-110" value="Número de días" style="ellipse;whiteSpace=wrap;html=1;align=center;" vertex="1" parent="1">
          <mxGeometry x="911" y="1920" width="100" height="40" as="geometry" />
        </mxCell>
        <mxCell id="u1p2TUHTxzgRom9_Ge5F-111" value="Pertenece" style="shape=rhombus;perimeter=rhombusPerimeter;whiteSpace=wrap;html=1;align=center;" vertex="1" parent="1">
          <mxGeometry x="1281" y="1750" width="120" height="60" as="geometry" />
        </mxCell>
        <mxCell id="u1p2TUHTxzgRom9_Ge5F-112" value="Temporada" style="whiteSpace=wrap;html=1;align=center;" vertex="1" parent="1">
          <mxGeometry x="1131" y="1950" width="100" height="40" as="geometry" />
        </mxCell>
        <mxCell id="u1p2TUHTxzgRom9_Ge5F-113" value="" style="endArrow=none;html=1;rounded=0;entryX=0.5;entryY=0;entryDx=0;entryDy=0;exitX=0;exitY=0.5;exitDx=0;exitDy=0;" edge="1" parent="1" source="u1p2TUHTxzgRom9_Ge5F-104" target="u1p2TUHTxzgRom9_Ge5F-103">
          <mxGeometry width="50" height="50" relative="1" as="geometry">
            <mxPoint x="1171" y="1930" as="sourcePoint" />
            <mxPoint x="1221" y="1880" as="targetPoint" />
          </mxGeometry>
        </mxCell>
        <mxCell id="u1p2TUHTxzgRom9_Ge5F-114" value="" style="endArrow=none;html=1;rounded=0;entryX=0.5;entryY=1;entryDx=0;entryDy=0;exitX=0;exitY=0.5;exitDx=0;exitDy=0;" edge="1" parent="1" source="u1p2TUHTxzgRom9_Ge5F-107" target="u1p2TUHTxzgRom9_Ge5F-103">
          <mxGeometry width="50" height="50" relative="1" as="geometry">
            <mxPoint x="1171" y="1930" as="sourcePoint" />
            <mxPoint x="1221" y="1880" as="targetPoint" />
          </mxGeometry>
        </mxCell>
        <mxCell id="u1p2TUHTxzgRom9_Ge5F-115" value="" style="endArrow=none;html=1;rounded=0;entryX=1;entryY=0.5;entryDx=0;entryDy=0;exitX=0.5;exitY=1;exitDx=0;exitDy=0;" edge="1" parent="1" source="u1p2TUHTxzgRom9_Ge5F-101" target="u1p2TUHTxzgRom9_Ge5F-107">
          <mxGeometry width="50" height="50" relative="1" as="geometry">
            <mxPoint x="1171" y="1930" as="sourcePoint" />
            <mxPoint x="1221" y="1880" as="targetPoint" />
          </mxGeometry>
        </mxCell>
        <mxCell id="u1p2TUHTxzgRom9_Ge5F-116" value="" style="endArrow=none;html=1;rounded=0;entryX=1;entryY=0.5;entryDx=0;entryDy=0;exitX=0.5;exitY=0;exitDx=0;exitDy=0;" edge="1" parent="1" source="u1p2TUHTxzgRom9_Ge5F-101" target="u1p2TUHTxzgRom9_Ge5F-104">
          <mxGeometry width="50" height="50" relative="1" as="geometry">
            <mxPoint x="1171" y="1930" as="sourcePoint" />
            <mxPoint x="1221" y="1880" as="targetPoint" />
          </mxGeometry>
        </mxCell>
        <mxCell id="u1p2TUHTxzgRom9_Ge5F-117" value="" style="endArrow=none;html=1;rounded=0;entryX=1;entryY=0.5;entryDx=0;entryDy=0;exitX=0;exitY=0.5;exitDx=0;exitDy=0;" edge="1" parent="1" source="u1p2TUHTxzgRom9_Ge5F-111" target="u1p2TUHTxzgRom9_Ge5F-101">
          <mxGeometry width="50" height="50" relative="1" as="geometry">
            <mxPoint x="1171" y="1930" as="sourcePoint" />
            <mxPoint x="1221" y="1880" as="targetPoint" />
          </mxGeometry>
        </mxCell>
        <mxCell id="u1p2TUHTxzgRom9_Ge5F-118" value="" style="endArrow=none;html=1;rounded=0;entryX=1;entryY=0.5;entryDx=0;entryDy=0;exitX=0;exitY=0.5;exitDx=0;exitDy=0;" edge="1" parent="1" source="u1p2TUHTxzgRom9_Ge5F-102" target="u1p2TUHTxzgRom9_Ge5F-111">
          <mxGeometry width="50" height="50" relative="1" as="geometry">
            <mxPoint x="1171" y="1930" as="sourcePoint" />
            <mxPoint x="1221" y="1880" as="targetPoint" />
          </mxGeometry>
        </mxCell>
        <mxCell id="u1p2TUHTxzgRom9_Ge5F-119" value="" style="endArrow=none;html=1;rounded=0;entryX=0;entryY=0;entryDx=0;entryDy=0;exitX=0.5;exitY=1;exitDx=0;exitDy=0;" edge="1" parent="1" source="u1p2TUHTxzgRom9_Ge5F-105" target="u1p2TUHTxzgRom9_Ge5F-104">
          <mxGeometry width="50" height="50" relative="1" as="geometry">
            <mxPoint x="1171" y="1930" as="sourcePoint" />
            <mxPoint x="1221" y="1880" as="targetPoint" />
          </mxGeometry>
        </mxCell>
        <mxCell id="u1p2TUHTxzgRom9_Ge5F-120" value="" style="endArrow=none;html=1;rounded=0;entryX=0.5;entryY=1;entryDx=0;entryDy=0;" edge="1" parent="1" source="u1p2TUHTxzgRom9_Ge5F-104" target="u1p2TUHTxzgRom9_Ge5F-106">
          <mxGeometry width="50" height="50" relative="1" as="geometry">
            <mxPoint x="1171" y="1820" as="sourcePoint" />
            <mxPoint x="1221" y="1770" as="targetPoint" />
          </mxGeometry>
        </mxCell>
        <mxCell id="u1p2TUHTxzgRom9_Ge5F-121" value="" style="endArrow=none;html=1;rounded=0;entryX=0;entryY=1;entryDx=0;entryDy=0;exitX=0.5;exitY=0;exitDx=0;exitDy=0;" edge="1" parent="1" source="u1p2TUHTxzgRom9_Ge5F-108" target="u1p2TUHTxzgRom9_Ge5F-107">
          <mxGeometry width="50" height="50" relative="1" as="geometry">
            <mxPoint x="1171" y="1820" as="sourcePoint" />
            <mxPoint x="1221" y="1770" as="targetPoint" />
          </mxGeometry>
        </mxCell>
        <mxCell id="u1p2TUHTxzgRom9_Ge5F-122" value="" style="endArrow=none;html=1;rounded=0;entryX=0.5;entryY=1;entryDx=0;entryDy=0;exitX=0.5;exitY=0;exitDx=0;exitDy=0;" edge="1" parent="1" source="u1p2TUHTxzgRom9_Ge5F-110" target="u1p2TUHTxzgRom9_Ge5F-107">
          <mxGeometry width="50" height="50" relative="1" as="geometry">
            <mxPoint x="1171" y="1820" as="sourcePoint" />
            <mxPoint x="1221" y="1770" as="targetPoint" />
          </mxGeometry>
        </mxCell>
        <mxCell id="u1p2TUHTxzgRom9_Ge5F-123" value="" style="endArrow=none;html=1;rounded=0;entryX=1;entryY=1;entryDx=0;entryDy=0;exitX=0.5;exitY=0;exitDx=0;exitDy=0;" edge="1" parent="1" source="u1p2TUHTxzgRom9_Ge5F-109" target="u1p2TUHTxzgRom9_Ge5F-107">
          <mxGeometry width="50" height="50" relative="1" as="geometry">
            <mxPoint x="1171" y="1820" as="sourcePoint" />
            <mxPoint x="1221" y="1770" as="targetPoint" />
          </mxGeometry>
        </mxCell>
        <mxCell id="u1p2TUHTxzgRom9_Ge5F-124" value="NIF" style="ellipse;whiteSpace=wrap;html=1;align=center;fontStyle=4;" vertex="1" parent="1">
          <mxGeometry x="651" y="1700" width="100" height="40" as="geometry" />
        </mxCell>
        <mxCell id="u1p2TUHTxzgRom9_Ge5F-125" value="Apellidos" style="ellipse;whiteSpace=wrap;html=1;align=center;" vertex="1" parent="1">
          <mxGeometry x="651" y="1820" width="100" height="40" as="geometry" />
        </mxCell>
        <mxCell id="u1p2TUHTxzgRom9_Ge5F-126" value="Dirección" style="ellipse;whiteSpace=wrap;html=1;align=center;" vertex="1" parent="1">
          <mxGeometry x="691" y="1650" width="100" height="40" as="geometry" />
        </mxCell>
        <mxCell id="u1p2TUHTxzgRom9_Ge5F-127" value="Nombre" style="ellipse;whiteSpace=wrap;html=1;align=center;" vertex="1" parent="1">
          <mxGeometry x="641" y="1760" width="100" height="40" as="geometry" />
        </mxCell>
        <mxCell id="u1p2TUHTxzgRom9_Ge5F-128" value="Teléfono" style="ellipse;whiteSpace=wrap;html=1;align=center;" vertex="1" parent="1">
          <mxGeometry x="731" y="1870" width="100" height="40" as="geometry" />
        </mxCell>
        <mxCell id="u1p2TUHTxzgRom9_Ge5F-129" value="" style="endArrow=none;html=1;rounded=0;entryX=0.5;entryY=0;entryDx=0;entryDy=0;exitX=1;exitY=1;exitDx=0;exitDy=0;" edge="1" parent="1" source="u1p2TUHTxzgRom9_Ge5F-126" target="u1p2TUHTxzgRom9_Ge5F-103">
          <mxGeometry width="50" height="50" relative="1" as="geometry">
            <mxPoint x="1121" y="1820" as="sourcePoint" />
            <mxPoint x="1171" y="1770" as="targetPoint" />
          </mxGeometry>
        </mxCell>
        <mxCell id="u1p2TUHTxzgRom9_Ge5F-130" value="" style="endArrow=none;html=1;rounded=0;entryX=0.25;entryY=0;entryDx=0;entryDy=0;exitX=1;exitY=0.5;exitDx=0;exitDy=0;" edge="1" parent="1" source="u1p2TUHTxzgRom9_Ge5F-124" target="u1p2TUHTxzgRom9_Ge5F-103">
          <mxGeometry width="50" height="50" relative="1" as="geometry">
            <mxPoint x="1121" y="1820" as="sourcePoint" />
            <mxPoint x="1171" y="1770" as="targetPoint" />
          </mxGeometry>
        </mxCell>
        <mxCell id="u1p2TUHTxzgRom9_Ge5F-131" value="" style="endArrow=none;html=1;rounded=0;entryX=0;entryY=0.5;entryDx=0;entryDy=0;exitX=1;exitY=0.5;exitDx=0;exitDy=0;" edge="1" parent="1" source="u1p2TUHTxzgRom9_Ge5F-127" target="u1p2TUHTxzgRom9_Ge5F-103">
          <mxGeometry width="50" height="50" relative="1" as="geometry">
            <mxPoint x="1121" y="1820" as="sourcePoint" />
            <mxPoint x="1171" y="1770" as="targetPoint" />
          </mxGeometry>
        </mxCell>
        <mxCell id="u1p2TUHTxzgRom9_Ge5F-132" value="" style="endArrow=none;html=1;rounded=0;entryX=0;entryY=1;entryDx=0;entryDy=0;exitX=1;exitY=0.5;exitDx=0;exitDy=0;" edge="1" parent="1" source="u1p2TUHTxzgRom9_Ge5F-125" target="u1p2TUHTxzgRom9_Ge5F-103">
          <mxGeometry width="50" height="50" relative="1" as="geometry">
            <mxPoint x="1121" y="1820" as="sourcePoint" />
            <mxPoint x="1171" y="1770" as="targetPoint" />
          </mxGeometry>
        </mxCell>
        <mxCell id="u1p2TUHTxzgRom9_Ge5F-133" value="" style="endArrow=none;html=1;rounded=0;entryX=0.25;entryY=1;entryDx=0;entryDy=0;exitX=0.5;exitY=0;exitDx=0;exitDy=0;" edge="1" parent="1" source="u1p2TUHTxzgRom9_Ge5F-128" target="u1p2TUHTxzgRom9_Ge5F-103">
          <mxGeometry width="50" height="50" relative="1" as="geometry">
            <mxPoint x="1121" y="1820" as="sourcePoint" />
            <mxPoint x="1171" y="1770" as="targetPoint" />
          </mxGeometry>
        </mxCell>
        <mxCell id="u1p2TUHTxzgRom9_Ge5F-134" value="Participaciones" style="ellipse;whiteSpace=wrap;html=1;align=center;" vertex="1" parent="1">
          <mxGeometry x="971" y="1610" width="100" height="40" as="geometry" />
        </mxCell>
        <mxCell id="u1p2TUHTxzgRom9_Ge5F-135" value="" style="endArrow=none;html=1;rounded=0;entryX=0.5;entryY=0;entryDx=0;entryDy=0;exitX=0.5;exitY=1;exitDx=0;exitDy=0;" edge="1" parent="1" source="u1p2TUHTxzgRom9_Ge5F-134" target="u1p2TUHTxzgRom9_Ge5F-104">
          <mxGeometry width="50" height="50" relative="1" as="geometry">
            <mxPoint x="1121" y="1820" as="sourcePoint" />
            <mxPoint x="1171" y="1770" as="targetPoint" />
          </mxGeometry>
        </mxCell>
        <mxCell id="u1p2TUHTxzgRom9_Ge5F-136" value="ID Zona" style="ellipse;whiteSpace=wrap;html=1;align=center;fontStyle=4;" vertex="1" parent="1">
          <mxGeometry x="1441" y="1670" width="100" height="40" as="geometry" />
        </mxCell>
        <mxCell id="u1p2TUHTxzgRom9_Ge5F-137" value="Temperatura" style="ellipse;whiteSpace=wrap;html=1;align=center;" vertex="1" parent="1">
          <mxGeometry x="1441" y="1830" width="100" height="40" as="geometry" />
        </mxCell>
        <mxCell id="u1p2TUHTxzgRom9_Ge5F-138" value="Pluviometría" style="ellipse;whiteSpace=wrap;html=1;align=center;" vertex="1" parent="1">
          <mxGeometry x="1581" y="1760" width="100" height="40" as="geometry" />
        </mxCell>
        <mxCell id="u1p2TUHTxzgRom9_Ge5F-139" value="Humedad media anual" style="ellipse;whiteSpace=wrap;html=1;align=center;" vertex="1" parent="1">
          <mxGeometry x="1571" y="1830" width="100" height="40" as="geometry" />
        </mxCell>
        <mxCell id="u1p2TUHTxzgRom9_Ge5F-140" value="" style="endArrow=none;html=1;rounded=0;entryX=0.5;entryY=1;entryDx=0;entryDy=0;" edge="1" parent="1" source="u1p2TUHTxzgRom9_Ge5F-102" target="u1p2TUHTxzgRom9_Ge5F-136">
          <mxGeometry width="50" height="50" relative="1" as="geometry">
            <mxPoint x="1141" y="1910" as="sourcePoint" />
            <mxPoint x="1191" y="1860" as="targetPoint" />
          </mxGeometry>
        </mxCell>
        <mxCell id="u1p2TUHTxzgRom9_Ge5F-141" value="" style="endArrow=none;html=1;rounded=0;entryX=0.5;entryY=1;entryDx=0;entryDy=0;" edge="1" parent="1" source="u1p2TUHTxzgRom9_Ge5F-137" target="u1p2TUHTxzgRom9_Ge5F-102">
          <mxGeometry width="50" height="50" relative="1" as="geometry">
            <mxPoint x="1141" y="1910" as="sourcePoint" />
            <mxPoint x="1191" y="1860" as="targetPoint" />
          </mxGeometry>
        </mxCell>
        <mxCell id="u1p2TUHTxzgRom9_Ge5F-142" value="" style="endArrow=none;html=1;rounded=0;entryX=1;entryY=0.25;entryDx=0;entryDy=0;exitX=0;exitY=0.5;exitDx=0;exitDy=0;" edge="1" parent="1" source="u1p2TUHTxzgRom9_Ge5F-138" target="u1p2TUHTxzgRom9_Ge5F-102">
          <mxGeometry width="50" height="50" relative="1" as="geometry">
            <mxPoint x="1141" y="1910" as="sourcePoint" />
            <mxPoint x="1191" y="1860" as="targetPoint" />
          </mxGeometry>
        </mxCell>
        <mxCell id="u1p2TUHTxzgRom9_Ge5F-143" value="" style="endArrow=none;html=1;rounded=0;entryX=1;entryY=0.75;entryDx=0;entryDy=0;exitX=0;exitY=0;exitDx=0;exitDy=0;" edge="1" parent="1" source="u1p2TUHTxzgRom9_Ge5F-139" target="u1p2TUHTxzgRom9_Ge5F-102">
          <mxGeometry width="50" height="50" relative="1" as="geometry">
            <mxPoint x="1141" y="1910" as="sourcePoint" />
            <mxPoint x="1191" y="1860" as="targetPoint" />
          </mxGeometry>
        </mxCell>
        <mxCell id="u1p2TUHTxzgRom9_Ge5F-144" value="Nombre" style="ellipse;whiteSpace=wrap;html=1;align=center;fontStyle=4;" vertex="1" parent="1">
          <mxGeometry x="1131" y="2020" width="100" height="40" as="geometry" />
        </mxCell>
        <mxCell id="u1p2TUHTxzgRom9_Ge5F-145" value="" style="endArrow=none;html=1;rounded=0;entryX=0.5;entryY=1;entryDx=0;entryDy=0;exitX=0.5;exitY=0;exitDx=0;exitDy=0;" edge="1" parent="1" source="u1p2TUHTxzgRom9_Ge5F-144" target="u1p2TUHTxzgRom9_Ge5F-112">
          <mxGeometry width="50" height="50" relative="1" as="geometry">
            <mxPoint x="981" y="1990" as="sourcePoint" />
            <mxPoint x="1031" y="1940" as="targetPoint" />
          </mxGeometry>
        </mxCell>
        <mxCell id="u1p2TUHTxzgRom9_Ge5F-146" value="Dirección" style="ellipse;whiteSpace=wrap;html=1;align=center;fontStyle=4;" vertex="1" parent="1">
          <mxGeometry x="1211" y="1670" width="100" height="40" as="geometry" />
        </mxCell>
        <mxCell id="u1p2TUHTxzgRom9_Ge5F-147" value="" style="endArrow=none;html=1;rounded=0;entryX=0.5;entryY=1;entryDx=0;entryDy=0;exitX=0.75;exitY=0;exitDx=0;exitDy=0;" edge="1" parent="1" source="u1p2TUHTxzgRom9_Ge5F-101" target="u1p2TUHTxzgRom9_Ge5F-146">
          <mxGeometry width="50" height="50" relative="1" as="geometry">
            <mxPoint x="1141" y="1830" as="sourcePoint" />
            <mxPoint x="1191" y="1780" as="targetPoint" />
          </mxGeometry>
        </mxCell>
        <mxCell id="u1p2TUHTxzgRom9_Ge5F-148" value="1" style="text;html=1;align=center;verticalAlign=middle;resizable=0;points=[];autosize=1;strokeColor=none;fillColor=none;" vertex="1" parent="1">
          <mxGeometry x="936" y="1678" width="30" height="30" as="geometry" />
        </mxCell>
        <mxCell id="u1p2TUHTxzgRom9_Ge5F-149" value="N" style="text;html=1;align=center;verticalAlign=middle;resizable=0;points=[];autosize=1;strokeColor=none;fillColor=none;" vertex="1" parent="1">
          <mxGeometry x="1081" y="1678" width="30" height="30" as="geometry" />
        </mxCell>
        <mxCell id="u1p2TUHTxzgRom9_Ge5F-150" value="1" style="text;html=1;align=center;verticalAlign=middle;resizable=0;points=[];autosize=1;strokeColor=none;fillColor=none;" vertex="1" parent="1">
          <mxGeometry x="916" y="1825" width="30" height="30" as="geometry" />
        </mxCell>
        <mxCell id="u1p2TUHTxzgRom9_Ge5F-151" value="N" style="text;html=1;align=center;verticalAlign=middle;resizable=0;points=[];autosize=1;strokeColor=none;fillColor=none;" vertex="1" parent="1">
          <mxGeometry x="1101" y="1820" width="30" height="30" as="geometry" />
        </mxCell>
        <mxCell id="u1p2TUHTxzgRom9_Ge5F-152" value="N" style="text;html=1;align=center;verticalAlign=middle;resizable=0;points=[];autosize=1;strokeColor=none;fillColor=none;" vertex="1" parent="1">
          <mxGeometry x="1271" y="1740" width="30" height="30" as="geometry" />
        </mxCell>
        <mxCell id="u1p2TUHTxzgRom9_Ge5F-153" value="1" style="text;html=1;align=center;verticalAlign=middle;resizable=0;points=[];autosize=1;strokeColor=none;fillColor=none;" vertex="1" parent="1">
          <mxGeometry x="1381" y="1740" width="30" height="30" as="geometry" />
        </mxCell>
        <mxCell id="u1p2TUHTxzgRom9_Ge5F-154" value="1" style="text;html=1;align=center;verticalAlign=middle;resizable=0;points=[];autosize=1;strokeColor=none;fillColor=none;" vertex="1" parent="1">
          <mxGeometry x="1191" y="1900" width="30" height="30" as="geometry" />
        </mxCell>
        <mxCell id="u1p2TUHTxzgRom9_Ge5F-155" value="N" style="text;html=1;align=center;verticalAlign=middle;resizable=0;points=[];autosize=1;strokeColor=none;fillColor=none;" vertex="1" parent="1">
          <mxGeometry x="1191" y="1820" width="30" height="30" as="geometry" />
        </mxCell>
        <mxCell id="u1p2TUHTxzgRom9_Ge5F-156" value="Pertenece" style="shape=rhombus;perimeter=rhombusPerimeter;whiteSpace=wrap;html=1;align=center;" vertex="1" parent="1">
          <mxGeometry x="1121" y="1850" width="120" height="60" as="geometry" />
        </mxCell>
        <mxCell id="u1p2TUHTxzgRom9_Ge5F-157" value="" style="endArrow=none;html=1;rounded=0;exitX=0.5;exitY=0;exitDx=0;exitDy=0;" edge="1" parent="1">
          <mxGeometry width="50" height="50" relative="1" as="geometry">
            <mxPoint x="1180" y="1850" as="sourcePoint" />
            <mxPoint x="1180" y="1800" as="targetPoint" />
          </mxGeometry>
        </mxCell>
        <mxCell id="u1p2TUHTxzgRom9_Ge5F-158" value="" style="endArrow=none;html=1;rounded=0;exitX=0.5;exitY=0;exitDx=0;exitDy=0;" edge="1" parent="1">
          <mxGeometry width="50" height="50" relative="1" as="geometry">
            <mxPoint x="1180" y="1950" as="sourcePoint" />
            <mxPoint x="1180" y="1910" as="targetPoint" />
          </mxGeometry>
        </mxCell>
        <mxCell id="u1p2TUHTxzgRom9_Ge5F-159" value="" style="rounded=0;whiteSpace=wrap;html=1;fillColor=#ffe6cc;strokeColor=#d79b00;" vertex="1" parent="1">
          <mxGeometry x="51.25" y="1658" width="530" height="402" as="geometry" />
        </mxCell>
        <mxCell id="u1p2TUHTxzgRom9_Ge5F-160" value="PROPIETARIO(&lt;font color=&quot;#ff0000&quot;&gt;&lt;u&gt;&lt;i&gt;NIF&lt;/i&gt;&lt;/u&gt;&lt;/font&gt;, nombre, apellidos, teléfonos, dirección&lt;font color=&quot;#ff0000&quot;&gt;&lt;i&gt;&lt;u&gt;)&lt;/u&gt;&lt;/i&gt;&lt;/font&gt;" style="text;html=1;strokeColor=none;fillColor=none;align=center;verticalAlign=middle;whiteSpace=wrap;rounded=0;" vertex="1" parent="1">
          <mxGeometry x="102.50000000000001" y="1678" width="435" height="30" as="geometry" />
        </mxCell>
        <mxCell id="u1p2TUHTxzgRom9_Ge5F-167" value="APARTAMENTO(&lt;font color=&quot;#ff0000&quot;&gt;&lt;u style=&quot;font-style: italic;&quot;&gt;direccion,&lt;/u&gt; nomTemporada, idZona&lt;i&gt;&lt;u&gt;)&lt;/u&gt;&lt;/i&gt;&lt;/font&gt;" style="text;html=1;strokeColor=none;fillColor=none;align=center;verticalAlign=middle;whiteSpace=wrap;rounded=0;" vertex="1" parent="1">
          <mxGeometry x="98.75000000000001" y="1880" width="435" height="30" as="geometry" />
        </mxCell>
        <mxCell id="u1p2TUHTxzgRom9_Ge5F-168" value="COMPRA(&lt;font color=&quot;#ff0000&quot;&gt;&lt;u&gt;&lt;i&gt;NIF&lt;/i&gt;&lt;/u&gt;&lt;/font&gt;,&amp;nbsp;&lt;font style=&quot;font-style: italic; text-decoration-line: underline;&quot; color=&quot;#ff0000&quot;&gt;direccion,&lt;/font&gt; fechaCompra, participaciones, importeTotal&lt;i style=&quot;color: rgb(255, 0, 0);&quot;&gt;&lt;u&gt;)&lt;/u&gt;&lt;/i&gt;" style="text;html=1;strokeColor=none;fillColor=none;align=center;verticalAlign=middle;whiteSpace=wrap;rounded=0;" vertex="1" parent="1">
          <mxGeometry x="98.75000000000001" y="1730" width="435" height="30" as="geometry" />
        </mxCell>
        <mxCell id="u1p2TUHTxzgRom9_Ge5F-169" value="RESERVA(&lt;font color=&quot;#ff0000&quot;&gt;&lt;u&gt;&lt;i&gt;NIF&lt;/i&gt;&lt;/u&gt;&lt;/font&gt;,&amp;nbsp;&lt;font style=&quot;font-style: italic; text-decoration-line: underline;&quot; color=&quot;#ff0000&quot;&gt;direccion,&lt;/font&gt; fechaReserva, numDías, fechaLlegada&lt;i style=&quot;color: rgb(255, 0, 0);&quot;&gt;&lt;u&gt;)&lt;/u&gt;&lt;/i&gt;" style="text;html=1;strokeColor=none;fillColor=none;align=center;verticalAlign=middle;whiteSpace=wrap;rounded=0;" vertex="1" parent="1">
          <mxGeometry x="103.74000000000001" y="1800" width="435" height="30" as="geometry" />
        </mxCell>
        <mxCell id="u1p2TUHTxzgRom9_Ge5F-170" value="TEMPORADA(&lt;font color=&quot;#ff0000&quot;&gt;&lt;u&gt;&lt;i&gt;nomTemporada&lt;/i&gt;&lt;/u&gt;&lt;i&gt;&lt;u&gt;)&lt;/u&gt;&lt;/i&gt;&lt;/font&gt;" style="text;html=1;strokeColor=none;fillColor=none;align=center;verticalAlign=middle;whiteSpace=wrap;rounded=0;" vertex="1" parent="1">
          <mxGeometry x="98.75000000000001" y="1940" width="435" height="30" as="geometry" />
        </mxCell>
        <mxCell id="u1p2TUHTxzgRom9_Ge5F-171" value="ZONA(&lt;font color=&quot;#ff0000&quot;&gt;&lt;u&gt;&lt;i&gt;idZona,&lt;/i&gt;&lt;/u&gt;&lt;/font&gt; pluviometría, temperatura, humedadMediaAnual&lt;font color=&quot;#ff0000&quot;&gt;&lt;i&gt;&lt;u&gt;)&lt;/u&gt;&lt;/i&gt;&lt;/font&gt;" style="text;html=1;strokeColor=none;fillColor=none;align=center;verticalAlign=middle;whiteSpace=wrap;rounded=0;" vertex="1" parent="1">
          <mxGeometry x="102.50000000000001" y="2000" width="435" height="30" as="geometry" />
        </mxCell>
        <mxCell id="u1p2TUHTxzgRom9_Ge5F-174" value="" style="endArrow=classic;html=1;rounded=0;exitX=0.32;exitY=1.076;exitDx=0;exitDy=0;exitPerimeter=0;entryX=0.164;entryY=0.667;entryDx=0;entryDy=0;entryPerimeter=0;" edge="1" parent="1" source="u1p2TUHTxzgRom9_Ge5F-168" target="u1p2TUHTxzgRom9_Ge5F-167">
          <mxGeometry width="50" height="50" relative="1" as="geometry">
            <mxPoint x="470" y="1780" as="sourcePoint" />
            <mxPoint x="520" y="1730" as="targetPoint" />
            <Array as="points">
              <mxPoint x="238" y="1780" />
              <mxPoint x="60" y="1780" />
              <mxPoint x="60" y="1900" />
            </Array>
          </mxGeometry>
        </mxCell>
        <mxCell id="u1p2TUHTxzgRom9_Ge5F-176" value="" style="endArrow=classic;html=1;rounded=0;" edge="1" parent="1">
          <mxGeometry width="50" height="50" relative="1" as="geometry">
            <mxPoint x="220" y="1800" as="sourcePoint" />
            <mxPoint x="150" y="1690" as="targetPoint" />
            <Array as="points">
              <mxPoint x="220" y="1790" />
              <mxPoint x="110" y="1790" />
              <mxPoint x="110" y="1690" />
            </Array>
          </mxGeometry>
        </mxCell>
        <mxCell id="u1p2TUHTxzgRom9_Ge5F-177" value="" style="endArrow=classic;html=1;rounded=0;exitX=0.222;exitY=0.076;exitDx=0;exitDy=0;exitPerimeter=0;" edge="1" parent="1" source="u1p2TUHTxzgRom9_Ge5F-168">
          <mxGeometry width="50" height="50" relative="1" as="geometry">
            <mxPoint x="470" y="1780" as="sourcePoint" />
            <mxPoint x="150" y="1700" as="targetPoint" />
            <Array as="points">
              <mxPoint x="195" y="1720" />
              <mxPoint x="120" y="1720" />
              <mxPoint x="120" y="1700" />
            </Array>
          </mxGeometry>
        </mxCell>
        <mxCell id="u1p2TUHTxzgRom9_Ge5F-178" value="" style="endArrow=classic;html=1;rounded=0;exitX=0.351;exitY=1.106;exitDx=0;exitDy=0;exitPerimeter=0;entryX=0.164;entryY=0.333;entryDx=0;entryDy=0;entryPerimeter=0;" edge="1" parent="1" source="u1p2TUHTxzgRom9_Ge5F-169" target="u1p2TUHTxzgRom9_Ge5F-167">
          <mxGeometry width="50" height="50" relative="1" as="geometry">
            <mxPoint x="470" y="1780" as="sourcePoint" />
            <mxPoint x="520" y="1730" as="targetPoint" />
            <Array as="points">
              <mxPoint x="256" y="1860" />
              <mxPoint x="110" y="1860" />
              <mxPoint x="110" y="1890" />
            </Array>
          </mxGeometry>
        </mxCell>
        <mxCell id="u1p2TUHTxzgRom9_Ge5F-179" value="" style="endArrow=classic;html=1;rounded=0;exitX=0.607;exitY=1.076;exitDx=0;exitDy=0;exitPerimeter=0;entryX=0.391;entryY=0.015;entryDx=0;entryDy=0;entryPerimeter=0;" edge="1" parent="1" source="u1p2TUHTxzgRom9_Ge5F-167" target="u1p2TUHTxzgRom9_Ge5F-170">
          <mxGeometry width="50" height="50" relative="1" as="geometry">
            <mxPoint x="470" y="1780" as="sourcePoint" />
            <mxPoint x="520" y="1730" as="targetPoint" />
            <Array as="points">
              <mxPoint x="363" y="1930" />
              <mxPoint x="270" y="1930" />
            </Array>
          </mxGeometry>
        </mxCell>
        <mxCell id="u1p2TUHTxzgRom9_Ge5F-180" value="" style="endArrow=classic;html=1;rounded=0;exitX=0.774;exitY=1.015;exitDx=0;exitDy=0;exitPerimeter=0;entryX=0.151;entryY=-0.045;entryDx=0;entryDy=0;entryPerimeter=0;" edge="1" parent="1" source="u1p2TUHTxzgRom9_Ge5F-167" target="u1p2TUHTxzgRom9_Ge5F-171">
          <mxGeometry width="50" height="50" relative="1" as="geometry">
            <mxPoint x="470" y="1780" as="sourcePoint" />
            <mxPoint x="520" y="1730" as="targetPoint" />
            <Array as="points">
              <mxPoint x="435" y="1920" />
              <mxPoint x="170" y="1920" />
            </Array>
          </mxGeometry>
        </mxCell>
      </root>
    </mxGraphModel>
  </diagram>
</mxfile>
